<?xml version="1.0" encoding="utf-8"?>
<!-- Generator: Adobe Illustrator 26.3.1, SVG Export Plug-In . SVG Version: 6.00 Build 0)  -->
<svg version="1.1" id="Layer_1" xmlns="http://www.w3.org/2000/svg" xmlns:xlink="http://www.w3.org/1999/xlink" x="0px" y="0px"
	 viewBox="0 0 332.6 39.6" style="enable-background:new 0 0 332.6 39.6;" xml:space="preserve">
<style type="text/css">
	.st0{fill:#FFFFFF;stroke:#FFFFFF;stroke-miterlimit:10;}
	.st1{fill:none;stroke:#FFFFFF;stroke-miterlimit:10;}
	.st2{fill:#E6E6E6;}
	.st3{fill:none;stroke:#E6E6E6;stroke-miterlimit:10;}
</style>
<g>
	<g>
		<g>
			<path class="st0" d="M38.1,22.3c-0.5-0.9-1.2-1.6-2-2.1c0.7-0.9,1.1-2,1.2-3.1c0.1-1.2-0.1-2.3-0.6-3.3s-1.2-1.9-2.3-2.6
				S32,10,30.4,10h-7.7v3.7h7.7c0.7,0,1.2,0.1,1.7,0.4c0.5,0.3,0.8,0.6,1,1s0.3,0.8,0.3,1.3s-0.1,0.9-0.3,1.3s-0.6,0.7-1,1
				c-0.5,0.3-1,0.4-1.6,0.4h-7.8v3.7h9.5c0.7,0,1.2,0.2,1.7,0.5s0.8,0.7,1,1.2s0.3,1,0.3,1.6s-0.1,1.1-0.3,1.6s-0.6,0.9-1,1.2
				s-1,0.5-1.7,0.5h-9.5v3.7h9.5c1.3,0,2.4-0.2,3.3-0.7c0.9-0.5,1.7-1.1,2.3-1.9s1-1.7,1.2-2.6c0.2-1,0.3-1.9,0.1-2.9
				C38.9,24,38.6,23.1,38.1,22.3z"/>
			<polygon class="st0" points="49.5,10 45.7,10 45.7,29.4 49.5,25.9 			"/>
			<rect x="45.7" y="29.4" class="st0" width="14.4" height="3.7"/>
			<path class="st0" d="M77,9.5c-3.3,0-6.7,1.4-8.8,4.1l2.6,2.9c1.5-2,3.8-3,6.2-3c3.8,0,7.7,2.7,7.7,8.1s-3.9,8.1-7.7,8.1
				c-3.9,0-7.8-2.7-7.8-8.1c0-1.9,0.5-3.4,1.3-4.6h-4.3c-0.5,1.4-0.7,2.9-0.7,4.6c0,8,5.7,12.1,11.5,12.1c5.7,0,11.4-4,11.4-12.1
				C88.5,13.5,82.7,9.5,77,9.5z"/>
			<path class="st0" d="M96.6,13.6l2.8,3.1c1.2-1.9,3.3-3.2,6.1-3.2c1.9,0,3.5,0.8,4.4,1.6l2.2-3.2c-1.9-1.5-4.3-2.3-6.7-2.3
				C101.5,9.5,98.5,11.1,96.6,13.6z"/>
			<path class="st0" d="M105.5,29.7c-7,0-9.1-8-6.3-12.8h-4.4c-2.5,7.1,1,16.7,10.7,16.7c2.9,0,4.8-0.8,6.7-2.3l-2.2-3.2
				C109.2,28.8,107.9,29.7,105.5,29.7z"/>
			<polygon class="st0" points="125.8,22.5 133.7,33.1 138.2,33.1 130.2,22.3 			"/>
			<polygon class="st0" points="130.9,10 122.8,20.5 122.8,10 119,10 119,33.1 122.8,33.1 122.8,26.4 125.8,22.5 135.4,10 			"/>
			<path class="st0" d="M161.6,10h-7v3.7h3.8l-3.8,3.2v16.2h3.8v-9.2h2.4l6,9.2h4.6l-6.5-9.8C171.4,20.6,170.3,10,161.6,10z
				 M161.6,20.2h-3.2v-6.4h3.2C166.4,13.8,166.4,20.2,161.6,20.2z"/>
			<rect x="177.3" y="29.4" class="st0" width="14.4" height="3.7"/>
			<polygon class="st0" points="177.3,23.4 191.7,23.4 191.7,19.7 181.1,19.7 181.1,13.7 191.7,13.7 191.7,10 177.3,10 			"/>
			<polygon class="st0" points="217.7,24.5 212.6,12.5 211.9,12.5 206.8,24.5 200.9,10 197,10 203.4,26.1 206.1,26.1 204.7,29.4 
				206.4,33.5 207,33.5 212.2,21 217.4,33.5 218.1,33.5 227.5,10 223.5,10 			"/>
			<path class="st0" d="M235.3,1.2l7,15.7h-3l-7.1,16.2h4l1.4-3.2h10.5l9.5,21.4h4L239.3,1.2H235.3z M246.4,26.2h-7.2l3.6-8.1
				L246.4,26.2z"/>
			<path class="st0" d="M266.5,10h-7v3.7h3.8l-3.8,3.2v16.2h3.8v-9.2h2.4l6,9.2h4.5l-6.5-9.8C276.4,20.6,275.2,10,266.5,10z
				 M266.5,20.2h-3.2v-6.4h3.2C271.3,13.8,271.3,20.2,266.5,20.2z"/>
			<path class="st0" d="M297.3,13.7c-0.9-1.1-2.1-2-3.5-2.6s-3.1-1-5-1h-6.6v3.7h6.4c1.2,0,2.4,0.2,3.3,0.7c1,0.4,1.7,1,2.4,1.8
				s1.1,1.6,1.4,2.5s0.5,1.9,0.5,2.9s-0.2,1.9-0.5,2.9c-0.3,0.9-0.8,1.8-1.4,2.5s-1.4,1.3-2.4,1.8s-2,0.7-3.3,0.7h-6.5v3.7h6.6
				c1.9,0,3.6-0.4,5-1c1.4-0.7,2.6-1.5,3.5-2.6s1.6-2.3,2.1-3.7c0.5-1.4,0.7-2.8,0.7-4.2s-0.2-2.8-0.7-4.2
				C298.9,16,298.2,14.8,297.3,13.7z"/>
			<path class="st0" d="M310.9,16.9H307c1.1,6.4,12.3,6.2,12.3,10.4c0,2.2-2.5,2.8-4.2,2.8c-2.2,0-4.5-0.6-5.9-2.5l-3,2.4
				c2,2.8,5.4,4,8.7,4c3.8,0,8.1-2.1,8.1-6.6C323,20.1,312.7,19.9,310.9,16.9z"/>
			<path class="st0" d="M310.6,16c0-2.3,1.8-3,3.8-3c2.1,0,4,0.9,5.4,2.4l2.5-2.9c-2-2.1-4.9-3.4-7.8-3.4c-3.3,0-6.3,1.5-7.3,4.6
				l3.6,2.9C310.6,16.4,310.6,16.2,310.6,16z"/>
		</g>
	</g>
</g>
<g>
	<g>
		<line class="st1" x1="133.3" y1="37.6" x2="133.3" y2="37.6"/>
	</g>
</g>
<g>
	<g>
		<g>
			<polygon class="st2" points="272.6,42 275.7,42 277.8,42 277.8,41 272.6,41 			"/>
			<polygon class="st2" points="274.6,47.3 275.7,47.3 275.7,42 274.6,42.9 			"/>
			<polygon class="st2" points="282.8,43.7 279.8,43.7 279.8,41 278.8,41 278.8,44.7 279.8,44.7 282.8,44.7 282.8,47.3 283.9,47.3 
				283.9,41 282.8,41 			"/>
			<polygon class="st2" points="278.8,47.3 279.8,47.3 279.8,44.7 278.8,45.5 			"/>
			<polygon class="st2" points="285.3,47.3 289.4,47.3 289.4,46.3 286.4,46.3 286.4,44.7 288.7,44.7 288.7,43.7 286.4,43.7 
				286.4,42 285.3,42.9 			"/>
			<polygon class="st2" points="285.3,42 286.4,42 289.4,42 289.4,41 285.3,41 			"/>
			<polygon class="st2" points="298.7,41 296.3,45.5 294,41 292.8,41 294,43.2 293.3,43.2 292.6,47.3 293.7,47.3 294.3,43.7 
				296.1,47.3 296.5,47.3 298.4,43.7 299,47.3 300,47.3 299.1,41 			"/>
			<polygon class="st2" points="301.3,47.3 302.4,47.3 302.4,42 301.3,42.9 			"/>
			<rect x="301.3" y="41" class="st2" width="1.1" height="1"/>
			<polygon class="st2" points="307.8,45 304.1,41 303.8,41 303.8,42.2 304.6,43.1 303.8,43.1 303.8,47.3 304.8,47.3 304.8,43.3 
				308.5,47.3 308.9,47.3 308.9,41 307.8,41 			"/>
			<polygon class="st2" points="310.3,47.3 314.3,47.3 314.3,46.3 311.3,46.3 311.3,44.7 313.7,44.7 313.7,43.7 311.3,43.7 
				311.3,42 310.3,42.9 			"/>
			<polygon class="st2" points="310.3,42 311.3,42 314.3,42 314.3,41 310.3,41 			"/>
			<path class="st2" d="M318.5,44.6c1.9-0.7,1.5-3.6-0.9-3.6h-2v1h1.1l-1.1,0.9v4.4h1.1v-2.5h0.7l1.7,2.5h1.3L318.5,44.6z
				 M317.5,43.8h-0.9V42h0.9C318.9,42,318.9,43.8,317.5,43.8z"/>
		</g>
	</g>
</g>
<g>
	<g>
		<line class="st3" x1="184.3" y1="44.3" x2="242.6" y2="44.3"/>
	</g>
</g>
</svg>
