<svg id="eJgiYOzNt2r1" xmlns="http://www.w3.org/2000/svg" xmlns:xlink="http://www.w3.org/1999/xlink" viewBox="0 0 400 74.876847" shape-rendering="geometricPrecision" text-rendering="geometricPrecision"><g transform="translate(.023987 0)"><path d="M399.915,37.417c0,20.625.02,29.037.043,18.695.024-10.343.024-27.218,0-37.5-.023-10.283-.043-1.82-.043,18.805M272.744,7.125c.209.435.549,1.167.755,1.625s.619,1.358.918,2c.298.642,1.123,2.442,1.832,4c.71,1.558,1.737,3.808,2.284,5s1.113,2.429,1.259,2.75c.145.321.585,1.272.976,2.114.867,1.866.873,1.858-1.444,1.921l-1.741.048-.536,1.084c-.535,1.081-1.319,2.767-2.093,4.5-.561,1.259-1.187,2.609-2.143,4.627-.446.941-.811,1.741-.811,1.777c0,.035-.327.766-.726,1.622-2.426,5.205-2.968,6.52-2.747,6.661.501.317,4.973.135,4.973-.203c0-.078.188-.556.417-1.063s.598-1.324.82-1.815c.223-.492.529-.942.681-1c.562-.216,13.333-.12,13.624.102.232.178.895,1.531,3.041,6.208.85,1.852,2.634,5.718,3.001,6.5.372.795,2.021,4.371,3.141,6.812.289.63,1.211,2.618,2.05,4.417l1.526,3.271l2.529.046l2.529.046-.12-.379c-.065-.209-.437-1.054-.825-1.879s-.894-1.913-1.124-2.417c-.418-.917-1.65-3.589-3.458-7.5-.53-1.146-1.204-2.608-1.498-3.25-1.334-2.911-3.449-7.487-4.189-9.062-.446-.95-.812-1.759-.812-1.796c0-.038-.255-.61-.568-1.272s-1.069-2.291-1.681-3.62c-.611-1.329-1.324-2.867-1.583-3.417-.449-.95-2.199-4.759-4.367-9.5-.544-1.191-1.206-2.616-1.47-3.166s-.867-1.863-1.341-2.917-1.143-2.517-1.487-3.25c-.591-1.26-2.341-5.046-3.005-6.5-.168-.367-.643-1.398-1.057-2.292l-.751-1.625h-2.58-2.58l.381.792m94.339,9.316c-3.382.705-5.58,2.106-6.889,4.392-.71,1.241-.779,1.106,1.489,2.903c2.248,1.78,2.484,1.877,2.484,1.012c0-4.094,6.587-4.812,11.313-1.233l.897.679l1.154-1.222c1.621-1.716,1.992-2.217,1.872-2.53-.244-.638-4.392-3.268-5.161-3.273-.188-.001-.413-.068-.5-.148-.505-.464-5.237-.876-6.659-.58M78.833,17.502C75.383,18.428,71,21.107,71,22.291c0,.289,2.95,3.376,3.226,3.376.076,0,.551-.369,1.057-.82c5.622-5.011,15.109-2.632,17.085,4.284c2.371,8.302-4.942,15.318-13.285,12.746-5.808-1.79-8.627-8.477-5.937-14.082.645-1.344.726-1.295-2.144-1.295-3.387,0-3.589.328-3.582,5.833.014,10.445,8.78,17.144,19.101,14.597c9.381-2.315,13.809-12.339,9.61-21.755-1.37-3.073-4.554-5.89-7.973-7.055-3.049-1.039-6.822-1.289-9.325-.618m35.834-.003c-2.963.792-4.823,1.76-6.629,3.452-1.318,1.235-1.333,1.154.564,3.175c1.87,1.993,1.71,1.944,2.784.852c3.03-3.078,7.491-3.77,11.447-1.776.779.393,1.468.738,1.531.767.099.044.968-1.102,2.464-3.252l.411-.591-.454-.362c-2.74-2.185-8.437-3.25-12.118-2.265m-98.928.386c-.046.12-.063,1.077-.036,2.125l.047,1.907L21.417,22l5.666.083.895.496c2.189,1.212,2.663,3.556,1.09,5.394-1.212,1.416-1.231,1.419-7.651,1.521l-5.667.089v2.084v2.083l6.833.083l6.834.084.786.462c2.335,1.372,2.834,4.787.997,6.821-1.168,1.293-1.216,1.3-8.475,1.3-7.755,0-7.058-.23-7.058,2.332v1.986l.562.106c1.016.19,14.127-.02,14.854-.239c6.521-1.961,8.496-10.377,3.566-15.191l-1.16-1.132.501-.79c2.716-4.282.182-10.15-5.002-11.587-1.472-.408-13.097-.495-13.249-.1m28.043-.112c-.159.16-.146,24.021.013,24.12.132.082,4.521-3.753,4.748-4.148.069-.121.107-4.669.083-10.108l-.043-9.887-2.343-.046c-1.288-.025-2.394.006-2.458.069m90.167,0c-.276.276-.13,29.019.148,29.126.346.133,3.547.13,4.216-.003l.52-.104v-4.162c0-4.621-.072-4.28,1.239-5.809.281-.327.924-1.134,1.428-1.791.777-1.015,1.418-1.563,1.561-1.337.126.199,4.398,5.831,5.606,7.39.426.55,1.406,1.828,2.179,2.84.772,1.012,1.608,2.099,1.858,2.417l.453.577h2.824c3.311,0,3.234.036,2.353-1.108-.378-.491-1.114-1.443-1.636-2.115-.521-.673-1.098-1.43-1.281-1.682-.184-.253-.709-.947-1.167-1.542-.458-.596-1.883-2.447-3.167-4.115l-2.333-3.032-2.75.028c-3.341.034-3.283.116-1.504-2.101.736-.917,1.807-2.258,2.379-2.98.573-.723,1.267-1.585,1.542-1.917.276-.332.762-.941,1.081-1.353.816-1.055.872-1.124,1.864-2.33.488-.594,1.076-1.322,1.305-1.617.229-.296.885-1.139,1.458-1.874s1.042-1.376,1.042-1.425c0-.048-1.268-.087-2.817-.087h-2.817l-.813.958c-.446.527-1.11,1.333-1.474,1.792-.364.458-.753.946-.865,1.083-.111.137-1.746,2.181-3.632,4.542-1.886,2.36-3.538,4.291-3.67,4.291-.206,0-.248-.932-.285-6.291l-.044-6.292-2.343-.046c-1.288-.025-2.395.006-2.458.069m39.329.005c-.061.061-.111,1.027-.111,2.147c0,2.411-.206,2.236,2.625,2.239c2.468.003,2.474-.04-.292,2.209-.687.558-1.494,1.243-1.792,1.521l-.541.505v10.198v10.197l.375.101c.485.13,3.762.131,4.248.001l.372-.1.044-5.773.044-5.773h1.573h1.572l1.98,2.917c1.089,1.604,2.804,4.154,3.812,5.666c1.008,1.513,1.997,2.843,2.198,2.956.396.224,4.958.282,5.493.071.249-.099-.198-.838-2.891-4.78-4.81-7.041-5.029-7.377-4.921-7.552.055-.09.523-.401,1.039-.693c6.82-3.848,5.209-13.909-2.546-15.905-1.061-.273-12.025-.409-12.281-.152m27.389,8.221v8.334h9.399c8.416,0,9.409-.027,9.5-.263.242-.633.109-4.031-.163-4.136-.145-.055-3.287-.101-6.982-.101-5.973,0-6.73-.029-6.82-.263-.055-.145-.101-1.752-.101-3.57s.046-3.425.101-3.57c.09-.234.854-.263,6.896-.263c7.988,0,7.198.27,7.133-2.441l-.047-1.976-9.458-.043-9.458-.043v8.335m23.666-8.114c0,.228,1.679,4.423,3.732,9.329.606,1.447,1.102,2.675,1.102,2.728s.25.632.556,1.286c.307.654.654,1.489.772,1.855.118.367.269.742.335.834.066.091.36.766.653,1.5.293.733.653,1.614.8,1.958l.268.625h1.442c1.903,0,2.178.176,1.713,1.095-.183.36-.57,1.227-.859,1.925l-.527,1.271.49,1.229c1.902,4.771,2.266,4.906,3.675,1.358.173-.437.542-1.282.819-1.878.276-.596.651-1.458.833-1.917.182-.458.556-1.321.833-1.916.276-.596.651-1.459.832-1.917c1.775-4.488,2.352-5.512,2.756-4.894.245.375,1.208,2.57,5.035,11.477c1.945,4.529,2.096,4.583,3.457,1.25c1.162-2.846,2.269-5.511,3.944-9.5.848-2.016,1.863-4.454,2.257-5.416c1.678-4.101,1.957-4.776,2.175-5.25c1.456-3.167,2.918-7.09,2.678-7.182-.548-.21-4.987.02-5.113.265-.07.137-.54,1.262-1.045,2.5s-1.723,4.162-2.708,6.5c-.984,2.337-2.105,5.017-2.492,5.954-.386.937-.834,1.905-.995,2.151l-.293.448-.309-.402c-.169-.22-.31-.458-.312-.528-.004-.121-.221-.629-1.119-2.613-.226-.499-1.39-3.124-2.587-5.834-3.053-6.913-2.68-6.806-5.059-1.454-.931,2.092-1.887,4.23-2.124,4.75-.238.519-.577,1.282-.753,1.695-1.289,3.014-1.88,4.207-2.127,4.285-.145.046-1.568-2.836-1.568-3.175c0-.048-.225-.573-.5-1.167s-.5-1.124-.5-1.176c0-.053-.745-1.841-1.655-3.973-.91-2.133-2.059-4.853-2.554-6.044l-.9-2.167-2.529-.046c-2.045-.037-2.529-.003-2.529.181m77.445-.107c-.206.205-.126,3.974.089,4.189.134.134.877.2,2.25.2c2.577,0,2.578.003.55,1.643-.412.334-.846.697-.963.807-.117.111-.567.486-1,.834s-.842.707-.91.799c-.279.38-.146,20.54.136,20.649.34.13,3.871.128,4.36-.003l.372-.1.044-5.773.044-5.773h1.583h1.584l1.416,2.105c.779,1.158,2.467,3.671,3.75,5.584c3.038,4.527,2.413,4.063,5.459,4.049c3.507-.016,3.384.141,1.76-2.24-4.958-7.267-6.684-9.859-6.7-10.058-.01-.125.469-.524,1.065-.887c6.775-4.131,5.148-13.861-2.657-15.884-1.015-.263-11.984-.39-12.232-.141m27.5,0c-.303.303-.116,4.041.211,4.216.198.106,1.98.173,4.625.174c4.686.001,5.884.123,7.6.772c6.948,2.625,8.109,13.124,1.95,17.645-2.013,1.478-4.321,1.907-10.271,1.912-4.694.004-4.226-.265-4.226,2.426v1.895l.59.111c.325.061,2.968.07,5.875.02c6.015-.102,6.587-.193,9.394-1.49c6.662-3.078,9.88-11.988,6.847-18.959-2.949-6.78-6.899-8.833-16.993-8.833-3.02,0-5.541.05-5.602.111M183.75,22.345c4.127,1.092,4.797,6.265,1,7.718-1.398.534-5.761.856-6.369.47-.217-.138-.341-7.86-.133-8.197.141-.227,4.638-.22,5.502.009m128.551.015c3.761.929,4.628,5.87,1.329,7.575-1.089.564-5.735,1.001-6.7.631-.274-.106-.42-8.02-.152-8.288.189-.189,4.696-.122,5.523.082m47.206,4.348c.052,2.675,3.066,5.046,10.135,7.971c4.629,1.916,6.403,3.632,5.855,5.664-1.011,3.757-8.739,4.038-12.632.459-.481-.442-.783-.611-.916-.51-1.596,1.207-3.449,2.777-3.449,2.922c0,.782,3.294,3.122,5.569,3.957c8.249,3.027,16.348-.649,16.348-7.421c0-4.593-2.409-6.997-10.167-10.146-3.132-1.272-3.985-1.701-4.964-2.499l-.948-.772h-2.419c-2.4,0-2.419.003-2.412.375m-255.106-.08c-.973.655-1.329,6.724-.574,9.789c1.698,6.892,7.167,10.948,14.761,10.948c3.384,0,5.177-.492,7.615-2.088c1.095-.716,1.094-.717-.29-2.672-1.493-2.107-1.443-2.073-2.237-1.548-5.149,3.408-12.603.72-14.514-5.232-.881-2.747-.519-7.308.698-8.773.379-.458-.076-.552-2.662-.549-1.438.001-2.697.057-2.797.125m178.811,3.414c.407.848,1.055,2.216,1.439,3.041s1.061,2.25,1.503,3.167c.568,1.176.756,1.728.638,1.875-.317.397-9.292.278-9.292-.123c0-.13,4.145-8.91,4.388-9.294.293-.463.619-.135,1.324,1.334M43.778,42.611c-.347.347-.111,4.184.264,4.284.491.132,18.018.135,18.361.004.393-.151.393-4.147,0-4.298-.361-.138-18.486-.129-18.625.01m156.889,2.038c0,1.806.042,2.165.263,2.25.345.132,18.129.132,18.473,0c.272-.104.405-3.503.163-4.135-.091-.236-1.084-.264-9.5-.264h-9.399v2.149M311.869,58.592c.051.05.747.091,1.548.091.8,0,1.496-.041,1.547-.091.05-.051-.646-.092-1.547-.092-.902,0-1.598.041-1.548.092m10.006.029c.344.036.906.036,1.25,0s.063-.065-.625-.065c-.687,0-.969.029-.625.065m18.913-.001c.296.037.821.038,1.167.002.345-.036.103-.067-.538-.067-.642-.001-.925.028-.629.065m3.754-.001c.252.039.664.039.916,0c.252-.038.046-.069-.458-.069s-.71.031-.458.069M215,60.986c0,.268.046.605.101.75.155.405,67.809.405,67.965,0c.055-.145.101-.482.101-.75v-.486h-34.084-34.083v.486m101.958-.03c.482.034,1.269.034,1.75,0c.482-.033.088-.061-.875-.061-.962,0-1.356.028-.875.061m4.834-.002c.298.037.785.037,1.083,0s.054-.067-.542-.067-.839.03-.541.067m18.829,0c.296.036.821.037,1.167.001s.104-.066-.538-.067-.925.029-.629.066m3.84.333c.3.038.75.037,1-.001.251-.038.006-.069-.544-.068s-.755.032-.456.069" fill="#f4f4f5" fill-rule="evenodd"/><path d="M0,37.417v37.416l199.708-.041l199.709-.042.046-37.375L399.51,0h-199.755L0,0v37.417M277.744,6.101c.229.229,1.756,3.226,1.756,3.447c0,.07.516,1.184,2.254,4.869c1.213,2.57,2.079,4.454,2.079,4.521c0,.039.256.613.568,1.275c1.502,3.182,2.266,4.83,2.266,4.89c0,.036.344.796.765,1.689.42.894.901,1.925,1.068,2.291c1.012,2.225,1.724,3.74,1.996,4.25.171.321.463.971.649,1.444.186.474.67,1.561,1.075,2.417.782,1.653,1.181,2.516,2.033,4.389c1.048,2.304,1.763,3.839,1.92,4.123.088.159.16.378.16.487s.101.316.224.461c.124.144.342.566.485.937.26.669,1.366,3.077,2.294,4.992.267.55.945,2.013,1.507,3.25c1.373,3.023,1.481,3.257,2.646,5.729.556,1.179,1.011,2.179,1.011,2.22c0,.042.375.867.833,1.834.459.967.834,1.796.834,1.843s.262.601.583,1.23c.651,1.277.704,1.562.32,1.71-.376.144-5.283.121-5.505-.027-.156-.103-2.065-3.92-2.065-4.128c0-.073-.594-1.358-2.104-4.556-.493-1.043-.896-1.925-.896-1.961c0-.093-.564-1.313-1.861-4.025-.627-1.31-1.139-2.421-1.139-2.468c0-.048-.293-.701-.652-1.452-.358-.751-1.075-2.303-1.593-3.449-.517-1.145-1.292-2.795-1.723-3.666l-.782-1.584-6.167-.048c-7.829-.061-7.001-.261-7.9,1.91-1.048,2.534-.827,2.406-4.062,2.351l-2.704-.046.023-.5c.013-.275.435-1.363.937-2.417s1.214-2.591,1.583-3.416c.368-.825.978-2.158,1.355-2.962s.685-1.494.685-1.533c0-.04.365-.845.811-1.789.447-.944,1.29-2.757,1.875-4.028.585-1.272,1.289-2.772,1.564-3.333l.5-1.022l1.853-.083l1.853-.084-.418-.916c-.231-.505-.7-1.517-1.043-2.25-.344-.734-.942-2.046-1.329-2.917s-1.146-2.511-1.685-3.646c-.54-1.134-.981-2.114-.981-2.176c0-.063-.254-.635-.565-1.271-.311-.637-.732-1.532-.936-1.99-.205-.459-.579-1.284-.832-1.834-1.319-2.862-1.279-2.737-.967-3.05.334-.333,5.202-.274,5.544.068M373,16.337c.596.183,1.252.407,1.458.498.207.091.582.25.834.354c1.079.445,1.35.593,2.458,1.337c2.38,1.599,2.583,1.974,1.642,3.037-2.844,3.211-2.946,3.266-4.206,2.27-2.112-1.67-6.596-2.99-7.405-2.18-.1.099-.319.18-.488.18-2.053,0-3.424,3.116-2.044,4.644.667.739,3.04,1.987,5.584,2.939.413.155,1.125.451,1.584.66.458.208,1.085.476,1.393.596c2.649,1.028,5.802,3.806,6.488,5.717c1.694,4.719.006,8.866-4.432,10.89-.522.238-1.08.498-1.239.577s-.469.144-.688.144-.668.112-.997.25c-.854.357-5.818.356-6.503-.001-.262-.137-.669-.249-.905-.249-2.061,0-7.534-3.583-7.534-4.933c0-.111.611-.678,1.359-1.259.747-.582,1.6-1.264,1.897-1.516.751-.64,1.216-.589,2.002.218c1.691,1.738,4.097,2.462,7.505,2.259c5.551-.33,5.865-4.801.487-6.929-.55-.218-1.429-.608-1.954-.868-.524-.26-1.038-.472-1.142-.472-.355,0-4.285-1.973-5.271-2.646-2.156-1.472-3.883-3.806-3.883-5.249c0-.739.109-.772,2.539-.772c2.323,0,2.364.237-.334-1.916-2.221-1.773-2.191-1.714-1.526-3.024c1.058-2.085,2.998-3.542,6.238-4.682.958-.337,5.86-.25,7.083.126m-288.25.668c2.096.202,2.904.34,3.011.513.051.082.226.149.39.149.671,0,3.718,1.752,4.847,2.786.229.209.458.38.511.38.511,0,3.163,4.054,3.581,5.476.152.517.342,1.091.421,1.274.846,1.948.826,6.858-.039,9.584-.454,1.431-.985,2.682-1.381,3.25-.191.275-.455.711-.587.969-1.216,2.389-5.102,4.946-9.254,6.089-6.793,1.87-15.213-2.01-18.03-8.308-.862-1.928-1.387-4.595-1.387-7.05c0-1.697.07-2.245.501-3.95.105-.413.231-.959.281-1.213.143-.728.483-.799,3.59-.75c3.039.049,3.583.24,2.72.956-.142.118-.258.355-.258.527s-.061.313-.135.313c-.704,0-1.045,5.568-.454,7.417c2.666,8.342,15.59,8.864,18.576.75c3.369-9.156-5.48-16.747-14.29-12.259-.613.312-1.452.908-1.864,1.324-1.178,1.189-1.432,1.12-3.385-.917-1.03-1.074-1.615-1.815-1.615-2.047c0-.594,3.431-3.601,4.109-3.601.07,0,.618-.238,1.218-.528.599-.29,1.22-.59,1.379-.666.159-.077.549-.14.865-.14.317,0,.622-.075.679-.166.057-.092.755-.168,1.552-.17.796-.001,1.56-.078,1.698-.171.137-.093.475-.123.75-.067s1.175.167,2,.246m34.333-.172c.057.092.694.167,1.417.167s1.36.075,1.417.167c.056.091.302.166.546.166.531,0,1.734.433,2.537.913.321.192.797.442,1.058.555c1.719.747,1.833,1.118.808,2.616-2.258,3.297-2.232,3.279-3.65,2.448-5.494-3.217-11.542-.884-13.715,5.29-.393,1.117-.559,5.182-.232,5.708.075.121.301.691.503,1.266c1.937,5.539,9.204,7.856,13.856,4.419.875-.647.951-.579,3.845,3.456.573.801-1.301,2.185-4.413,3.259-1.399.483-7.588.668-8.369.25-.185-.099-.509-.181-.722-.183-1.213-.01-4.725-1.934-6.358-3.483-3.891-3.69-5.645-10.151-4.259-15.69.516-2.063.353-1.975,3.712-2.028l2.853-.046-1.704-1.75c-.99-1.017-1.706-1.889-1.708-2.083-.009-.614,2.83-3.191,3.862-3.506.211-.064.495-.214.633-.334.795-.69,2.932-1.252,5.167-1.357.87-.041,1.654-.145,1.741-.231.211-.207,1.045-.199,1.175.011m-89.534.832c.531.177,1.18.476,1.442.662.263.187.548.34.636.34.409,0,2.321,2.024,2.775,2.938.268.538.556,1.12.641,1.293.733,1.486.591,4.242-.321,6.253l-.56,1.234l1.056,1.099c2.898,3.017,3.576,9.71,1.184,11.695-.129.107-.235.292-.235.411c0,.771-2.853,2.768-4.897,3.427-1.212.391-15.358.495-15.737.116-.136-.136-.2-.933-.2-2.5v-2.3h6.494c6.172,0,6.538-.017,7.375-.345c2.791-1.092,3.564-4.402,1.548-6.633-.969-1.073-1.073-1.087-8.583-1.184l-6.75-.088v-2.416-2.417L21,29.162c6.149-.098,6.376-.132,7.426-1.118c1.316-1.235,1.417-3.205.229-4.475-.97-1.037-1.51-1.123-7.738-1.227l-5.5-.092-.047-2.242c-.026-1.232-.009-2.339.036-2.458.154-.4,12.913-.297,14.143.115m19.418-.132c.351.351.281,19.868-.074,20.441-.15.244-1.2,1.268-2.332,2.276-1.133,1.008-2.06,1.889-2.06,1.957-.001.068,4.18.143,9.291.167l9.291.043.047,2.248c.041,1.969.011,2.275-.24,2.458-.48.351-19.109.301-19.461-.052-.346-.345-.406-29.194-.062-29.538.28-.28,5.32-.28,5.6,0m90.095.175c.055.207.101,2.944.102,6.084.003,6.012.012,6.072.776,5.103c1.913-2.428,7.239-9.095,8.407-10.523l.854-1.046l3.261.046c3.684.051,3.697.056,2.754,1.171-.348.412-1.083,1.327-1.633,2.034s-1.078,1.373-1.173,1.48c-.096.106-.83,1.018-1.632,2.026-.802,1.009-1.737,2.164-2.077,2.567s-.686.853-.77,1-.198.304-.253.35-.474.564-.931,1.152c-.456.588-1.149,1.42-1.539,1.851-.389.43-.708.858-.708.952s-.113.264-.25.378c-.676.561-.324.667,2.219.667h2.469l.423.458c.233.252.662.796.953,1.209.47.665,1.274,1.716,1.934,2.529.125.153.734.941,1.354,1.75.619.809,1.736,2.258,2.481,3.221c4.413,5.699,4.412,5.166.013,5.166h-3.046l-.825-.958c-.453-.527-1.005-1.221-1.225-1.542s-.447-.621-.503-.666c-.056-.046-.435-.534-.841-1.084-.405-.55-.78-1.037-.832-1.083-.053-.046-.631-.796-1.285-1.667-1.384-1.842-3.703-4.863-4.281-5.578l-.4-.495-.37.328c-.204.181-.59.629-.858.995-.268.367-.729.929-1.025,1.25s-.741.882-.988,1.247l-.45.664v3.972c0,2.42-.068,4.099-.173,4.295-.197.369-4.693.495-5.338.15-.407-.218-.519-29.554-.114-29.717.793-.32,5.422-.098,5.52.264m46.76-.193c2.587.79,5.017,2.668,5.911,4.568.259.55.54,1.134.623,1.297.659,1.282.661,4.828.002,6.063-.09.169-.292.607-.45.974-.643,1.495-2.253,3.15-3.879,3.986-.496.255-.531.319-.334.594.654.91,2.266,3.266,2.555,3.734.183.297.69,1.036,1.125,1.643.435.606.792,1.159.792,1.228c0,.07.142.281.315.471.9.98,3.198,4.69,3.053,4.927-.157.255-5.442.47-6.31.257-.315-.078-1.258-1.348-2.462-3.316-.176-.289-.589-.894-.917-1.347-.328-.452-.746-1.064-.929-1.358-.6-.965-3.452-5.146-3.713-5.444-.197-.225-.518-.292-1.396-.292h-1.141v5.655c0,4.918-.034,5.689-.262,5.916-.396.397-4.993.385-5.434-.013-.462-.419-.474-20.492-.013-21.024.354-.407,2.416-2.15,3.167-2.677.823-.577.689-.655-1.222-.717-1.514-.049-1.797-.102-2-.38-.309-.424-.34-4.423-.036-4.727.268-.268,12.081-.285,12.955-.018m34.141,2.305c.03,1.556-.017,2.467-.133,2.584-.12.119-2.441.207-6.963.263l-6.784.083v3.333v3.334l6.917.088c3.804.048,6.935.104,6.958.125.26.23,0,4.881-.28,5.031-.549.293-18.865.232-19.271-.064-.382-.279-.606-16.246-.238-16.934.175-.327.336-.332,9.963-.289l9.785.043.046,2.403m10.108-1.58c.236.498.429.953.429,1.01c0,.058.177.494.393.969.217.475.935,2.17,1.598,3.765.662,1.595,1.378,3.283,1.592,3.75s.573,1.337.799,1.933c.226.595.612,1.533.857,2.083.528,1.182.66,1.487.954,2.208.122.298.282.542.357.542.111,0,1.783-3.351,1.783-3.574c0-.037.263-.637.584-1.331.32-.695.583-1.296.583-1.336s.306-.733.679-1.541c.374-.807.778-1.693.899-1.968.625-1.427,1.126-2.531,1.266-2.789.086-.16.156-.373.156-.475c0-.777,1.289-1.461,1.93-1.025.206.14,1.121,2.032,2.155,4.456.392.916,1.064,2.454,1.494,3.416.43.963.938,2.125,1.13,2.584c1.33,3.186,2.124,4.35,2.124,3.115c0-.129.215-.695.477-1.258s.682-1.549.932-2.191c.25-.641.514-1.241.586-1.333s.188-.354.257-.583.274-.755.456-1.167c.41-.928.677-1.577.962-2.333.121-.321.277-.661.347-.754.071-.094.254-.541.407-.992s.455-1.2.67-1.663.622-1.432.905-2.154.626-1.529.762-1.792l.248-.479h2.893c2.682,0,2.899.023,2.974.311.07.267-1.579,4.567-2.533,6.606-.171.367-.503,1.154-.738,1.75s-.849,2.096-1.365,3.333c-.516,1.238-1.194,2.888-1.507,3.667-.312.779-.672,1.642-.799,1.917-.279.602-.478,1.09-.85,2.083-.262.698-.928,2.207-1.269,2.873-.081.159-.148.37-.148.468c0,.099-.3.817-.667,1.596-.366.779-.666,1.491-.666,1.583s-.195.594-.433,1.115c-.238.522-.541,1.211-.672,1.532-.556,1.359-.609,1.413-1.415,1.466-.833.054-.966-.045-1.306-.966-.118-.321-.506-1.204-.861-1.962-.356-.758-.647-1.452-.647-1.544c0-.091-.071-.296-.159-.455-.317-.575-1.341-2.827-1.341-2.948c0-.069-.289-.736-.643-1.483s-.701-1.546-.77-1.775c-.07-.229-.338-.867-.595-1.417-.258-.55-.585-1.286-.727-1.637-.225-.556-.598-.723-.598-.268c0,.088-.144.477-.321.865-.796,1.755-1.236,2.762-1.512,3.458-.163.413-.568,1.337-.899,2.054-.331.716-.601,1.339-.601,1.384s-.195.508-.433,1.03c-.666,1.458-.846,1.874-1.233,2.858-.196.501-.476,1.139-.62,1.417s-.359.694-.478.923c-.183.355-.332.416-.999.416-.864,0-.821.043-1.494-1.5-1.113-2.548-1.365-3.15-1.478-3.52-.105-.345.33-1.528,1.188-3.23l.379-.75-1.475-.083c-1.796-.102-1.826-.124-2.606-2.044-.344-.847-.812-1.952-1.04-2.456-.227-.504-.525-1.217-.661-1.583-.355-.955-.464-1.219-.95-2.297-.238-.529-.434-1.005-.434-1.058c0-.052-.12-.369-.267-.703-.147-.335-.328-.759-.403-.942-.075-.184-.321-.746-.546-1.25-.226-.505-.467-1.104-.537-1.334-.069-.229-.346-.9-.616-1.491s-.605-1.416-.745-1.833c-.14-.418-.407-1.097-.594-1.509-1.304-2.887-1.478-2.667,2.108-2.667h2.909l.429.907m84.251-.725c8.143,2.491,9.595,13.289,2.261,16.817-.275.132-.527.257-.56.278-.032.021.099.26.292.531.193.272.352.57.352.663c0,.092.065.193.145.224.135.051,1.261,1.675,4.498,6.485.715,1.062,1.663,2.439,2.107,3.062c1.176,1.648,1.154,1.664-2.435,1.722-1.594.027-3.052.01-3.239-.036-.223-.054-1.698-2.107-4.25-5.916l-3.91-5.833-1.291-.006L307,35.5v5.717c0,4.224-.052,5.769-.2,5.916-.329.329-5.035.275-5.371-.062-.233-.232-.262-1.416-.262-10.516v-10.255l.544-.525c.48-.464,2.093-1.821,3.289-2.767l.417-.33-1.792-.006c-2.47-.007-2.458.006-2.458-2.805c0-1.437.065-2.199.2-2.334.268-.268,12.082-.285,12.955-.018m27.416-.03c1.58.469,2.382.746,2.679.927.183.111.535.252.782.312c1.14.281,4.511,3.084,5.343,4.443.196.321.413.622.482.671.211.148,1.476,2.771,1.476,3.06c0,.15.073.403.161.563.921,1.652.923,7.466.003,9.789-.072.183-.303.778-.512,1.321-1.508,3.909-5.582,7.371-9.735,8.271-.367.08-.929.223-1.249.318-1.07.319-11.831.228-12.197-.102-.378-.343-.447-3.849-.089-4.558l.211-.417l5.328-.1c5.319-.1,6.671-.255,7.321-.84.087-.079.265-.143.396-.143.335,0,2.361-1.545,2.862-2.182c3.707-4.715,2.57-12.256-2.25-14.916-2.22-1.224-2.289-1.235-7.907-1.238-5.609-.002-5.721-.013-5.989-.603-.235-.515-.247-3.972-.015-4.405.191-.357,11.757-.51,12.899-.171M178.667,26.417v3.75h1.725c4.281,0,5.581-.619,6.293-2.997.821-2.74-1.286-4.499-5.393-4.502l-2.625-.001v3.75m128.371-.042l.045,3.708l2.631-.009c3.077-.011,3.894-.289,4.919-1.673c1.037-1.399.669-3.795-.742-4.834-1.154-.849-1.396-.9-4.219-.9h-2.678l.044,3.708m-25.322,3.667c-.251.481-.616,1.25-.811,1.708s-.953,2.052-1.684,3.542L277.891,38h4.221c2.734,0,4.221-.059,4.221-.168c0-.204-.353-.985-1.925-4.249-.662-1.375-1.398-2.931-1.637-3.458-.526-1.164-.493-1.161-1.055-.083M219.8,42.2c.136.136.2.926.2,2.467c0,1.54-.064,2.33-.2,2.466-.347.347-18.943.282-19.442-.068-.539-.378-.498-4.43.049-4.829.44-.321,19.073-.356,19.393-.036m95.672,16.279c.309.196-.133.354-.986.354h-.653v2.403c0,1.772-.054,2.422-.208,2.476-.561.195-.625-.058-.625-2.48v-2.399h-.833c-.775,0-.994-.117-.723-.389.163-.162,3.766-.131,4.028.035m1.161,1.063l.049,1.125h1.235h1.234l.05-1.125c.043-.998.087-1.125.382-1.125.32,0,.334.111.334,2.666c0,2.556-.014,2.667-.334,2.667-.3,0-.338-.127-.382-1.292l-.048-1.291h-1.243-1.243v1.232c0,.972-.056,1.253-.265,1.334-.508.194-.569-.102-.569-2.754v-2.669l.375.053c.341.049.38.156.425,1.179m7.492-.917c.052.154-.258.208-1.194.208h-1.264v.909.909l1.125.05c.618.027,1.125.124,1.125.216c0,.091-.507.189-1.125.216l-1.125.049v.974c0,1.134.055,1.177,1.513,1.177.946,0,1.281.185.723.399-.145.056-.776.101-1.403.101-1.773,0-1.667.175-1.667-2.74c0-1.395.053-2.59.117-2.654.211-.211,3.1-.042,3.175.186m3.445-.191c.145.056.263.241.263.412s.15.578.334.904c.183.326.333.705.333.841s.066.377.147.536.249.505.373.768l.225.479.288-.645c.321-.718.55-1.288.956-2.381.3-.807.652-1.124,1.072-.963.307.118.421,5.17.121,5.356-.517.319-.682-.113-.69-1.8l-.009-1.691-.673,1.666c-.803,1.988-1.259,2.381-1.575,1.36-.062-.198-.244-.659-.405-1.026s-.41-.967-.553-1.333l-.26-.667-.008,1.691c-.007,1.386-.057,1.708-.274,1.792-.507.194-.568-.102-.568-2.743c0-2.86.013-2.897.903-2.556m6.059,2.59c.047,2.65-.055,3.081-.644,2.717-.176-.109-.209-5.128-.035-5.302.502-.502.634-.003.679,2.585m2.949-.819c1.437,2.193,1.4,2.192,1.458.003.044-1.664.071-1.791.381-1.791.452,0,.617,5.137.17,5.308-.386.149-.657-.016-.997-.605-.169-.295-.728-1.174-1.241-1.953l-.932-1.415-.084,1.999c-.068,1.629-.129,1.999-.333,1.999-.21,0-.257-.434-.296-2.72l-.046-2.721.374.054c.266.038.712.569,1.546,1.842m6.381-1.58c.051.154-.242.208-1.112.208h-1.18v.917.917h1.083c.852,0,1.083.053,1.083.25c0,.196-.231.25-1.083.25h-1.083v1.083v1.083h1.18c.871,0,1.163.055,1.111.209-.048.146-.514.208-1.555.208h-1.486l-.046-2.715-.046-2.714l1.532.048c1.042.032,1.555.114,1.602.256m3.415-.083c1.025.578,1.051,2.625.033,2.625-.303,0-.309.311-.012.653.597.688,1.088,1.818.832,1.916-.432.166-.793-.17-1.31-1.218-.757-1.532-1.417-1.51-1.417.048c0,1.05-.233,1.452-.682,1.175-.172-.107-.211-5.126-.04-5.297.195-.194,2.212-.119,2.596.098M344.5,59.917v1.083h.605c.413,0,.705-.114.917-.359.67-.772.144-1.808-.917-1.808h-.605v1.084m-61.033,1.286c.045.703.01.796-.333.879-.211.051-15.684.072-34.384.047l-34-.046-.053-.642c-.029-.354-.012-.748.037-.876.076-.198,5.147-.226,34.386-.19l34.297.042.05.786" fill="#2c344c" fill-rule="evenodd"/><path d="M399.459,35.208c-.022,19.365-.041,36.202-.041,37.416-.001,1.214.055,2.208.124,2.208.068.001.125-16.836.125-37.415c0-20.58-.038-37.417-.084-37.417s-.101,15.844-.124,35.208M272.2,6.033c-.312.313-.352.188.967,3.05.253.55.627,1.375.832,1.834.204.458.625,1.353.936,1.99.311.636.565,1.208.565,1.271c0,.062.441,1.042.981,2.176.539,1.135,1.298,2.775,1.685,3.646s.985,2.183,1.329,2.917c.343.733.812,1.745,1.043,2.25l.418.916-1.853.084-1.853.083-.5,1.022c-.275.561-.979,2.061-1.564,3.333-.585,1.271-1.428,3.084-1.875,4.028-.446.944-.811,1.749-.811,1.789c0,.039-.308.729-.685,1.533s-.987,2.137-1.355,2.962c-.369.825-1.081,2.362-1.583,3.416s-.924,2.142-.937,2.417l-.023.5l2.704.046c3.235.055,3.014.183,4.062-2.351.899-2.171.071-1.971,7.9-1.91l6.167.048.782,1.584c.431.871,1.206,2.521,1.723,3.666.518,1.146,1.235,2.698,1.593,3.449.359.751.652,1.399.652,1.44c0,.226,2.191,4.642,2.266,4.567.05-.049-.095-.453-.32-.897-.225-.445-1.288-2.721-2.362-5.059-1.075-2.337-2.18-4.737-2.457-5.333s-.722-1.571-.989-2.167c-.723-1.61-.181-1.501-7.378-1.488-7.504.014-6.743-.189-7.774,2.077-1.064,2.341-.907,2.245-3.671,2.245-3.246,0-3.1.142-2.084-2.025c1.251-2.669,1.733-3.717,5.846-12.725c1.253-2.744,1.854-4.028,2.34-5l.5-1l1.748-.048c2.185-.06,2.155-.019,1.325-1.801-.38-.817-1.238-2.685-1.905-4.151-.668-1.467-1.532-3.342-1.919-4.167-.388-.825-.842-1.815-1.009-2.2-.399-.916-1.837-4.056-2.769-6.045-.944-2.013-.951-2.006,1.936-2.003c2.885.003,2.756-.058,3.594,1.731.39.834,1.056,2.257,1.479,3.161s.77,1.666.77,1.694c0,.027.457,1.012,1.016,2.189s1.076,2.29,1.149,2.473c.143.363,6.925,15.093,8.037,17.458.378.803.712,1.433.743,1.402.068-.068-.815-2.24-1.178-2.901-.22-.4-.853-1.751-1.934-4.126-.167-.366-.648-1.397-1.068-2.291-.421-.893-.765-1.653-.765-1.689c0-.06-.764-1.708-2.266-4.89-.312-.662-.568-1.236-.568-1.275c0-.067-.866-1.951-2.079-4.521-1.738-3.685-2.254-4.799-2.254-4.869c0-.221-1.527-3.218-1.756-3.447-.342-.342-5.21-.401-5.544-.068m93.717,10.183c-1.227.442-1.628.628-1.542.714.051.051.231.02.4-.07c1.346-.711,6.123-.986,7.642-.439.366.133.831.242,1.031.243.201.002.412.078.469.169.056.092.226.167.376.167.517,0-.034-.287-1.236-.645-1.34-.399-6.16-.493-7.14-.139M82,16.833c-.18.116-.015.162.583.162.599,0,.763-.046.584-.162-.138-.089-.4-.161-.584-.161-.183,0-.446.072-.583.161m35.917,0c-.063.101.168.167.583.167s.646-.066.583-.167c-.056-.091-.319-.166-.583-.166s-.527.075-.583.166m-39.165.331c-.064.103.104.125.448.06.737-.141.801-.224.171-.224-.285,0-.564.074-.619.164m6.429-.103c.038.034.369.112.736.173.477.08.595.063.416-.059-.225-.153-1.32-.261-1.152-.114m29.319.114c-.179.122-.061.139.417.059.826-.138.96-.235.319-.231-.267.001-.598.079-.736.172m6.347-.116c.185.158,1.16.254,1.068.105-.056-.09-.334-.164-.619-.164s-.487.027-.449.059m255.012.595c2.128,1.077,3.809,2.369,3.805,2.924-.003.402-2.713,3.529-3.191,3.681-.238.075-.552-.081-1.111-.551-3.508-2.955-9.247-3.101-10.618-.269-.614,1.268-.452,2.485.437,3.291.745.673,3.593,2.219,3.767,2.044.049-.049-.62-.427-1.486-.84-2.253-1.074-2.855-1.768-2.765-3.185.096-1.506,1.351-2.916,2.596-2.916.169,0,.388-.081.488-.18.809-.81,5.293.51,7.405,2.18.464.367.985.667,1.158.667.451,0,3.656-3.407,3.656-3.887c0-.493-2.479-2.452-3.917-3.095-.275-.123-.63-.29-.789-.371s-.384-.145-.5-.143.363.294,1.065.65M15.406,17.55c-.045.119-.062,1.226-.036,2.458l.047,2.242l5.5.092c6.228.104,6.768.19,7.738,1.227c1.572,1.68.695,4.677-1.545,5.28-.354.095-.6.216-.547.269.184.184,1.549-.46,2.085-.984c1.418-1.386,1.332-3.888-.172-5.005-1.114-.828-1.381-.863-7.309-.957l-5.584-.089v-2.25-2.25l6.25-.047c6.675-.051,7.352.012,8.79.82.692.388.911.314.284-.097-1.309-.858-1.882-.917-8.871-.922-5.222-.003-6.563.04-6.63.213m27.961-.017c-.344.344-.284,29.193.062,29.538.352.353,18.981.403,19.461.052.467-.341.34-4.68-.14-4.752-.305-.046-.308-.034-.042.131.463.288.436,4.242-.03,4.492-.386.206-18.648.24-18.971.035-.165-.106-.2-3.175-.166-14.789l.042-14.657h2.584h2.583l.046,9.917c.025,5.454.009,10.067-.035,10.25-.045.183-1.138,1.27-2.429,2.414-1.292,1.144-2.283,2.102-2.203,2.129s.628-.401,1.217-.951s1.568-1.433,2.176-1.963c1.802-1.569,1.645-.449,1.645-11.746c0-7.478-.049-9.949-.2-10.1-.28-.28-5.32-.28-5.6,0m33.8-.042c-.138.076-.649.312-1.136.524-.488.212-.924.447-.97.522-.047.075.352-.058.886-.296.533-.237,1.345-.534,1.803-.659.779-.212.796-.227.25-.228-.321-.001-.696.061-.833.137m10.417.178c7.883,2.501,12.008,10.578,9.756,19.103-1.552,5.879-6.658,10.17-12.757,10.722l-1.333.121l1.238.026c.681.014,1.469-.047,1.75-.136c3.078-.975,4.016-1.38,5.458-2.356c1.167-.79,3.436-3.032,3.808-3.763.132-.258.396-.694.587-.969.396-.568.927-1.819,1.381-3.25.865-2.726.885-7.636.039-9.584-.079-.183-.269-.757-.421-1.274-.418-1.422-3.07-5.476-3.581-5.476-.053,0-.282-.171-.511-.38-1.129-1.034-4.176-2.786-4.847-2.786-.164,0-.344-.075-.401-.167s-.342-.162-.635-.157c-.445.008-.369.061.469.326m24.666.108c-.55.228-1.112.533-1.25.676s-.175.221-.083.174c.718-.375,2.469-1.065,3-1.182.207-.045.144-.075-.167-.078-.275-.002-.95.182-1.5.41m10.167-.329c.588.133,1.816.608,2.394.926.309.17.597.273.641.23.207-.207-2.325-1.28-2.952-1.251-.338.015-.354.033-.083.095m11.125-.004c-.405.163-.293,29.499.114,29.717.645.345,5.141.219,5.338-.15.105-.196.173-1.875.173-4.295v-3.972l.45-.664c.247-.365.692-.926.988-1.247s.757-.883,1.025-1.25c.268-.366.654-.814.858-.995l.37-.328.4.495c.578.715,2.897,3.736,4.281,5.578.654.871,1.232,1.621,1.285,1.667.052.046.427.533.832,1.083.406.55.785,1.038.841,1.084.056.045.283.345.503.666s.772,1.015,1.225,1.542l.825.958h3.046c4.399,0,4.4.533-.013-5.166-.745-.963-1.862-2.412-2.481-3.221-.62-.809-1.229-1.597-1.354-1.75-.66-.813-1.464-1.864-1.934-2.529-.291-.413-.72-.957-.953-1.209L148.938,33h-2.469c-2.543,0-2.895-.106-2.219-.667.137-.114.25-.284.25-.378s.319-.522.708-.952c.39-.431,1.083-1.263,1.539-1.851.457-.588.876-1.106.931-1.152s.169-.203.253-.35.43-.597.77-1s1.275-1.558,2.077-2.567c.802-1.008,1.536-1.92,1.632-2.026.095-.107.623-.773,1.173-1.48s1.285-1.622,1.633-2.034c.943-1.115.93-1.12-2.754-1.171l-3.261-.046-.854,1.046c-1.168,1.428-6.494,8.095-8.407,10.523-.262.333-.543.605-.623.605s-.167-2.644-.192-5.875l-.046-5.875-.04,6.125c-.022,3.498.025,6.125.109,6.125.082,0,2.051-2.379,4.375-5.287c2.325-2.908,4.586-5.72,5.025-6.25l.797-.963h3.078c3.44,0,3.424-.007,2.505,1.083-.486.578-6.431,8.01-7.845,9.808-.275.35-.762.96-1.083,1.357-1.593,1.968-2.467,3.17-2.394,3.288.044.072,1.257.135,2.696.14l2.615.009.348.449c.191.247,1.616,2.1,3.166,4.117c3.972,5.169,4.681,6.092,5.861,7.625c1.438,1.869,1.544,1.786-2.292,1.786-3.169,0-2.91.137-5.023-2.662-.934-1.238-2.267-2.988-2.963-3.89-.695-.902-1.564-2.035-1.931-2.517-1.025-1.35-2.526-3.297-2.89-3.751-.413-.514-.458-.48-2.167,1.648C138.77,38.797,139,38.034,139,42.728c0,4.863.263,4.439-2.75,4.439-1.158,0-2.25-.078-2.428-.173-.344-.184-.52-28.758-.179-29.294.105-.167.743-.205,2.747-.167c1.436.028,2.61-.006,2.61-.075c0-.137-5.121-.15-5.458-.014m39.325.089c-.304.304-.273,4.303.036,4.727.203.278.486.331,2,.38c1.911.062,2.045.14,1.222.717-.751.527-2.813,2.27-3.167,2.677-.461.532-.449,20.605.013,21.024.441.398,5.038.41,5.434.013.228-.227.262-.998.262-5.916v-5.655h1.141c.878,0,1.199.067,1.396.292.261.298,3.113,4.479,3.713,5.444.183.294.601.906.929,1.358.328.453.741,1.058.917,1.347c1.204,1.968,2.147,3.238,2.462,3.316.868.213,6.153-.002,6.31-.257.145-.237-2.153-3.947-3.053-4.927-.173-.19-.315-.401-.315-.471c0-.069-.357-.622-.792-1.228-.435-.607-.942-1.346-1.125-1.643-.289-.468-1.901-2.824-2.555-3.734-.197-.275-.162-.339.334-.594c1.626-.836,3.236-2.491,3.879-3.986.158-.367.36-.805.45-.974.674-1.264.638-5.391-.053-6.021-.136-.125-.154-.081-.066.161c1.405,3.858-.579,8.697-4.364,10.647-.782.403-1.128-.259,3.098,5.937c4.854,7.116,4.559,6.638,4.208,6.825-.358.192-5.413.224-5.883.038-.157-.062-2.032-2.701-4.166-5.863l-3.882-5.75h-1.417-1.416l-.044,5.772-.044,5.773-.373.1c-.485.13-4.095.13-4.581,0L173,46.961v-10.389-10.389l1.958-1.623c2.76-2.288,2.759-2.195.039-2.263l-1.914-.047v-2.333-2.334l6-.046l6-.046l1.25.439c.688.242,1.346.517,1.463.612.116.095.257.128.311.073.108-.108-1.334-.8-2.285-1.096-.868-.27-12.684-.257-12.955.014m27.302.13c-.368.688-.144,16.655.238,16.934.406.296,18.722.357,19.271.064.28-.15.54-4.801.28-5.031-.023-.021-3.154-.077-6.958-.125l-6.917-.088v-3.334-3.333l6.784-.083c4.522-.056,6.843-.144,6.963-.263.116-.117.163-1.028.133-2.584l-.046-2.403-9.785-.043c-9.627-.043-9.788-.038-9.963.289m23.569-.109c-.08.209.098.699.887,2.446.187.412.454,1.091.594,1.509.14.417.475,1.242.745,1.833s.547,1.262.616,1.491c.07.23.311.829.537,1.334.225.504.471,1.066.546,1.25.075.183.256.607.403.942.147.334.267.651.267.703c0,.053.196.529.434,1.058.486,1.078.595,1.342.95,2.297.136.366.434,1.079.661,1.583.228.504.696,1.609,1.04,2.456.78,1.92.81,1.942,2.606,2.044l1.475.083-.379.75c-.858,1.702-1.293,2.885-1.188,3.23.113.37.365.972,1.478,3.52.673,1.543.63,1.5,1.494,1.5.667,0,.816-.061.999-.416.119-.229.334-.645.478-.923s.424-.916.62-1.417c.387-.984.567-1.4,1.233-2.858.238-.522.433-.985.433-1.03s.27-.668.601-1.384c.331-.717.736-1.641.899-2.054.276-.696.716-1.703,1.512-3.458.177-.388.321-.777.321-.865c0-.455.373-.288.598.268.142.351.469,1.087.727,1.637.257.55.525,1.188.595,1.417.069.229.416,1.028.77,1.775s.643,1.414.643,1.483c0,.121,1.024,2.373,1.341,2.948.088.159.159.364.159.455c0,.092.291.786.647,1.544.355.758.743,1.641.861,1.962.34.921.473,1.02,1.306.966.806-.053.859-.107,1.415-1.466.131-.321.434-1.01.672-1.532.238-.521.433-1.023.433-1.115s.3-.804.666-1.583c.367-.779.667-1.497.667-1.596c0-.098.067-.309.148-.468.341-.666,1.007-2.175,1.269-2.873.372-.993.571-1.481.85-2.083.127-.275.487-1.138.799-1.917.313-.779.991-2.429,1.507-3.667.516-1.237,1.13-2.737,1.365-3.333s.567-1.383.738-1.75c.954-2.039,2.603-6.339,2.533-6.606-.075-.288-.292-.311-2.974-.311h-2.893l-.248.479c-.136.263-.479,1.07-.762,1.792s-.69,1.691-.905,2.154-.517,1.212-.67,1.663-.336.898-.407.992c-.07.093-.226.433-.347.754-.285.756-.552,1.405-.962,2.333-.182.412-.387.938-.456,1.167s-.185.491-.257.583c-.23.293-1.039,2.428-.953,2.514.046.046.203-.217.35-.583.147-.367.411-.989.588-1.382.176-.394,1.313-3.116,2.526-6.049c1.212-2.933,2.309-5.54,2.437-5.792l.233-.458h2.745c2.602,0,2.746.017,2.746.322c0,.254-2.5,6.491-3.579,8.928-.121.275-.495,1.175-.83,2s-.711,1.725-.836,2c-.126.275-.466,1.1-.756,1.833-.291.734-.68,1.667-.866,2.073-.185.407-.431,1.007-.547,1.334-.115.326-.377.968-.581,1.427-.496,1.112-.43.954-2.262,5.416-1.964,4.782-1.916,4.701-2.706,4.635-.721-.061-.21.986-5.36-10.968-1.397-3.244-1.893-4.204-2.06-3.99-.031.04-.72,1.611-1.53,3.49s-1.674,3.867-1.92,4.417-.661,1.525-.921,2.166c-.261.642-.527,1.242-.592,1.334-.065.091-.395.841-.735,1.666-.765,1.862-.835,1.946-1.555,1.884-.645-.056-.64-.049-1.419-1.8-1.572-3.536-1.542-3.241-.536-5.393.954-2.039.933-2.078-1.102-2.143l-1.495-.048-1.08-2.583c-.594-1.421-1.347-3.258-1.675-4.083-.327-.825-.811-1.974-1.076-2.554-.265-.579-.481-1.098-.481-1.152c0-.055-.372-.968-.826-2.03-1.501-3.507-3.174-7.69-3.174-7.937c0-.442,5.431-.352,5.669.094.1.186.86,1.967,1.69,3.958.83,1.992,1.809,4.333,2.176,5.204s1.027,2.446,1.467,3.5c1.185,2.836,1.863,4.407,1.939,4.49.154.169.551-.512,1.306-2.24.44-1.008,1.053-2.383,1.36-3.054.308-.671.56-1.247.56-1.279c0-.033.252-.609.561-1.28s1.072-2.372,1.696-3.779c1.776-4.002,1.983-3.965,4.049.725c2.777,6.304,3.442,7.754,3.491,7.608.03-.09-.28-.901-.689-1.802-1.067-2.35-2.608-5.872-2.608-5.958c0-.201-1.585-3.364-1.739-3.47-.636-.438-1.928.249-1.928,1.025c0,.102-.07.315-.156.475-.14.258-.641,1.362-1.266,2.789-.121.275-.525,1.161-.899,1.968-.373.808-.679,1.501-.679,1.541s-.263.641-.583,1.336c-.321.694-.584,1.294-.584,1.331c0,.223-1.672,3.574-1.783,3.574-.075,0-.235-.244-.357-.542-.294-.721-.426-1.026-.954-2.208-.245-.55-.631-1.488-.857-2.083-.226-.596-.585-1.466-.799-1.933s-.93-2.155-1.592-3.75c-.663-1.595-1.381-3.29-1.598-3.765-.216-.475-.393-.911-.393-.969c0-.057-.193-.512-.429-1.01l-.429-.907h-2.909c-2.262,0-2.929.05-2.995.221m77.629-.021c-.135.135-.2.897-.2,2.334c0,2.811-.012,2.798,2.458,2.805l1.792.006-.417.33c-1.196.946-2.809,2.303-3.289,2.767l-.544.525v10.255c0,9.1.029,10.284.262,10.516.336.337,5.042.391,5.371.062.148-.147.2-1.692.2-5.916v-5.717l1.292.006l1.291.006l3.91,5.833c2.552,3.809,4.027,5.862,4.25,5.916.187.046,1.645.063,3.239.036c3.589-.058,3.611-.074,2.435-1.722-.444-.623-1.392-2-2.107-3.062-3.237-4.81-4.363-6.434-4.498-6.485-.08-.031-.145-.132-.145-.224c0-.093-.159-.391-.352-.663-.193-.271-.324-.51-.292-.531.033-.021.285-.146.56-.278c5.625-2.706,6.376-11.207,1.326-15.019-.505-.381-.957-.654-1.006-.605-.048.048.175.249.495.447c5.251,3.245,4.804,11.962-.765,14.931l-.943.503l1.808,2.664c6.581,9.69,6.503,9.568,6.17,9.746-.329.176-5.16.232-5.776.067-.304-.082-3.711-4.868-5.359-7.53-.211-.341-.929-1.407-1.595-2.369l-1.212-1.75h-1.405-1.404l-.043,5.666c-.038,5.091-.071,5.688-.323,5.875-.294.218-4.268.307-4.787.108-.237-.091-.264-1.173-.264-10.518v-10.417l.458-.357c1.026-.802,3.467-2.861,3.577-3.019.228-.327-.142-.41-2.038-.458l-1.914-.047-.046-2.375-.046-2.375h6.034h6.033l1.263.434c.694.238,1.358.512,1.475.607.116.095.257.129.311.074.108-.108-1.334-.8-2.285-1.096-.868-.27-12.684-.257-12.955.014m27.472.123c-.232.433-.22,3.89.015,4.405.269.59.398.603,5.813.579c3.045-.014,4.536-.07,3.916-.146-.55-.069-2.847-.133-5.104-.143-4.923-.021-4.505.226-4.442-2.624l.046-2.144l5.87-.043c5.55-.042,5.935-.025,7.083.307.668.194,1.402.392,1.631.442.229.049.512.165.629.257.116.093.254.126.306.075.16-.161-.62-.47-2.864-1.136-1.142-.339-12.708-.186-12.899.171m33.744.019c-1.672,1.06-3.684,3.907-3.247,4.596.109.172.95.912,1.869,1.646c2.698,2.153,2.657,1.916.334,1.916-2.43,0-2.539.033-2.539.772c0,1.443,1.727,3.777,3.883,5.249c1.064.726,4.94,2.652,5.308,2.637.124-.005-.262-.239-.858-.521-5.293-2.501-6.819-3.731-7.838-6.316-.621-1.575-.525-1.654,1.998-1.654c1.185,0,2.192-.062,2.239-.138s-.886-.914-2.073-1.862c-1.383-1.104-2.159-1.835-2.159-2.035c0-.918,1.648-3.097,2.996-3.962.46-.296.837-.567.837-.604c0-.131-.259-.035-.75.276M219.796,19.767c.036,1.688-.005,2.227-.181,2.373-.16.133-2.245.203-6.963.233l-6.735.044v3.583v3.583l6.916.088c3.804.049,6.936.105,6.959.125.258.23,0,4.548-.281,4.698-.427.228-18.151.238-18.75.01l-.428-.162v-8.31c0-4.57.051-8.36.113-8.422s4.43-.093,9.708-.07l9.596.043.046,2.184M32.16,19.295c1.064.89,1.518,1.423,2.13,2.503.297.524.54.849.541.722.007-.764-2.596-3.862-3.234-3.85-.099.002.154.283.563.625m41.185.125c-1.441.987-2.845,2.392-2.845,2.848c0,.232.584.971,1.615,2.047c1.953,2.037,2.207,2.106,3.385.917.73-.737,2.602-1.809,3.886-2.225.35-.114.601-.242.558-.286-.311-.31-3.275,1.191-4.471,2.265-.519.466-1.086.847-1.26.847-.384,0-3.546-3.17-3.546-3.555c0-.384,1.82-2.068,3.134-2.901.614-.389,1.003-.703.866-.699-.138.005-.733.338-1.322.742m36.489-.397c-1.526.93-3.337,2.685-3.329,3.227.002.194.718,1.066,1.708,2.083l1.704,1.75-2.853.046c-3.359.053-3.196-.035-3.712,2.028-1.386,5.539.368,12,4.259,15.69c1.633,1.549,5.145,3.473,6.358,3.483.213.002.537.084.722.183.781.418,6.97.233,8.369-.25c3.112-1.074,4.986-2.458,4.413-3.259-2.895-4.036-2.97-4.104-3.845-3.454-.864.64-2.299,1.236-3.295,1.367-.504.066-1.029.192-1.166.279-.172.11-.068.127.333.054.321-.057.846-.143,1.167-.19.786-.114,1.736-.515,2.795-1.177.483-.302.913-.55.955-.55.196,0,2.916,3.853,2.916,4.131c0,.178-.304.528-.708.814-4.597,3.254-12.311,3.135-17.263-.266-5.263-3.614-7.887-12.361-5.416-18.054l.271-.625h3.058c3.344,0,3.253-.035,2.706,1.038-2.991,5.862.436,13.886,6.269,14.679.367.05.929.14,1.25.201.419.079.515.062.341-.059-.133-.094-.62-.217-1.083-.274-3.08-.383-5.918-2.734-6.986-5.789-.202-.575-.428-1.145-.503-1.266-.327-.526-.161-4.591.232-5.708c1.164-3.308,2.6-4.854,5.749-6.187.776-.329.603-.391-.25-.09-1.151.405-2.497,1.298-3.472,2.3-.828.852-1.043.993-1.301.854-.372-.199-3.458-3.494-3.522-3.761-.11-.451,1.626-2.069,3.458-3.224.323-.204.512-.372.42-.375-.091-.002-.429.156-.749.351m16.584.22c1.205.857,1.211.806-.354,2.971-1.458,2.016-1.785,2.252-2.384,1.719-.406-.361-2.357-1.312-2.467-1.202-.054.054.171.21.499.347s.981.476,1.45.752c1.48.873,1.456.889,3.725-2.451.935-1.378.929-1.472-.15-2.187-1.075-.711-1.333-.67-.319.051m62.792.132c.946.726,2.156,2.224,2.651,3.281.153.327.285.507.292.401.052-.736-1.673-3.044-2.909-3.895-1.071-.736-1.092-.599-.034.213m156.503-.165c10.276,5.759,9.97,21.195-.524,26.428-1.498.747-1.598.946-.152.305c3.073-1.364,5.946-4.341,7.115-7.372.209-.543.44-1.138.512-1.321.92-2.323.918-8.137-.003-9.789-.088-.16-.161-.411-.161-.558c0-.345-1.346-3.07-1.516-3.07-.071,0-.178-.157-.239-.35-.28-.882-3.416-3.715-5.028-4.543-.978-.502-.981-.277-.004.27m-228.63,3.216l-1,.223.917-.089c1.161-.114,1.692-.113,2.833.004l.917.094-1-.238c-1.189-.284-1.368-.284-2.667.006M81.25,22.5c-.448.08-.039.12,1.25.122c1.466.002,1.741-.028,1.167-.131-.883-.157-1.504-.154-2.417.009m97.283.033c-.334.335-.278,7.365.062,7.705.501.5,4.611.251,6.127-.372c2.814-1.156,2.99-5.385.285-6.824-1.044-.555-1.231-.453-.226.124c3.363,1.928,2.285,6.484-1.632,6.893-.567.059-1.808.108-2.757.108h-1.725v-3.75-3.75l2.541-.023c1.881-.016,2.325-.056,1.709-.152-1.361-.212-4.157-.186-4.384.041m128.509-.089c-.293.118-.301,7.564-.009,7.856.455.454,4.904.114,6.238-.478c2.882-1.277,2.895-5.467.021-6.901-.575-.287-1.057-.343-.542-.063c3.166,1.722,3.405,5.187.464,6.746-.84.445-.956.461-3.5.47l-2.631.009-.045-3.708-.044-3.708l2.628-.021c1.884-.015,2.416-.059,1.878-.155-.823-.146-4.126-.181-4.458-.047M85.5,22.937c.321.134,1.071.446,1.666.695c1.403.585,3.36,2.483,4.074,3.951.669,1.376.727,1.549.845,2.508.11.894.41,1.619.41.992.001-3.25-2.912-6.906-6.495-8.151-.937-.325-1.284-.322-.5.005m255-.07c3.4,1.447,4.465,2.379,5.807,5.084c1.602,3.225,1.042,7.88-1.307,10.867-.501.637-2.527,2.182-2.862,2.182-.131,0-.309.064-.396.143-.65.585-2.002.74-7.321.84l-5.328.1-.211.417c-.358.709-.289,4.215.089,4.558.807.73,12.54.32,14.279-.499.412-.194.427-.218.083-.135-2.825.688-3.437.741-8.636.742-6.24.001-5.697.24-5.697-2.509c0-2.685-.606-2.425,5.917-2.535l5.166-.087l1.305-.518c8.158-3.243,8.089-15.54-.103-18.535-.909-.332-1.498-.419-.785-.115m-305.593.216c.623,1.683.42,4.365-.465,6.146l-.575,1.159l1.057,1.042c3.145,3.099,3.638,8.191,1.153,11.903-.71,1.062-1.297,1.624-2.651,2.541-.897.608-.532.592.416-.017.892-.574,2.325-1.973,2.325-2.27c0-.117.106-.301.235-.408c2.392-1.985,1.714-8.678-1.184-11.695l-1.056-1.099.56-1.234c.515-1.137.824-2.45.82-3.484-.004-.807-.359-2.551-.557-2.733-.153-.14-.172-.105-.078.149m33.051,3.262c-.16.094-.29.337-.289.538.002.352.011.35.213-.05l.211-.416l2.816-.046c3.176-.052,3.243-.027,2.672,1.021-3.73,6.849,1.032,14.682,8.919,14.671c5.456-.007,9.977-3.845,9.989-8.48.001-.558-.269.062-.399.917-1.284,8.403-14.056,10.281-18.266,2.686-.809-1.46-1.065-2.601-1.07-4.769-.004-1.96.429-4.417.778-4.417.074,0,.135-.141.135-.313s.116-.409.258-.527c.94-.781-4.715-1.553-5.967-.815m-.538,1.28c-.693,1.741-.64,8.19.076,9.323.161.255.176.224.096-.198-.734-3.85-.732-5.711.009-8.958.116-.511-.001-.619-.181-.167m212.46,5.782c-1.197,2.516-2.135,4.616-2.084,4.667.148.148,8.432.102,8.668-.048.166-.106.102-.36-.285-1.123-.552-1.091-.709-1.04-.179.058.183.379.333.768.333.864c0,.118-1.392.175-4.233.175h-4.234l.779-1.542c.429-.848,1.178-2.404,1.665-3.458c1.009-2.186,1.676-3.516,1.871-3.733.074-.082.336.293.581.834c1.118,2.458,2.757,5.769,2.823,5.703.04-.04-.215-.669-.567-1.397s-1.036-2.186-1.52-3.24c-.897-1.952-1.113-2.334-1.324-2.334-.065,0-1.097,2.059-2.294,4.574m89.62-4.324c.229.131.508.241.62.244.191.006,1.75.666,2.438,1.032.169.09.347.125.396.076.093-.093-1.322-.755-2.392-1.118-.355-.12-.717-.278-.804-.351s-.274-.13-.416-.127c-.164.004-.106.093.158.244m-354.094.3c-.045.12-.062,1.226-.036,2.459l.047,2.241l6.75.088c7.51.097,7.614.111,8.583,1.184c1.998,2.211,1.249,5.517-1.5,6.625-.458.184-.708.339-.555.344c2.795.092,4.408-4.586,2.393-6.94-1.099-1.284-1.135-1.29-8.755-1.384l-6.75-.083v-2.25-2.25L21,29.33l5.417-.087-5.464-.038c-4.357-.031-5.48.006-5.547.178m359.261,1.97c3.237,1.734,4.937,3.464,5.676,5.774.168.526.31.805.315.621.054-2.046-2.65-4.969-6.314-6.826-1.543-.782-1.276-.426.323.431M250,32.057c0,.541,1.38,2.966,1.574,2.764.288-.301,1.294-2.675,1.181-2.788-.1-.101-.922,1.712-.922,2.035c0,.838-.472.525-.991-.657-.462-1.052-.842-1.662-.842-1.354m119.083,2.81c.742.391,2.906,1.304,3.065,1.292.178-.013-1.189-.693-2.379-1.185-1.351-.558-1.618-.599-.686-.107m3.25,1.374c0,.041.416.351.925.688c1.416.94,1.742,1.462,1.742,2.79c0,2.692-3.501,3.772-8.75,2.701l-.5-.102.5.23c.275.127,1.258.317,2.184.422c6.226.703,9.236-3.262,4.796-6.317-.683-.47-.897-.568-.897-.412m-80.666.152c0,.033.308.727.686,1.542.377.815.912,1.969,1.188,2.565s.722,1.571.991,2.167c1.161,2.572,1.699,3.657,1.776,3.581.045-.045-.002-.25-.104-.457-.227-.461-1.237-2.639-1.951-4.208-.291-.641-.687-1.504-.879-1.916-.192-.413-.612-1.332-.934-2.042-.488-1.078-.773-1.532-.773-1.232M67.68,37.534c-.048,1.039,1.72,4.005,3.403,5.707c2.185,2.21,3.854,3.139,7.679,4.274.281.083,1.106.139,1.833.123l1.322-.028-1.334-.102C74.951,47.074,69.772,43.174,67.956,38c-.145-.413-.269-.622-.276-.466m312.954,2.658c-.141,3.515-1.759,5.599-5.634,7.26-.687.295-1.118.539-.956.542s.424-.059.583-.138.717-.339,1.239-.577c3.312-1.511,5.142-4.255,5.131-7.696-.005-1.728-.288-1.254-.363.609m-19.399.105c-.283.249-1.127.929-1.875,1.511-1.742,1.354-1.716,1.546.468,3.437c1.363,1.181,5.246,3.07,5.594,2.722.048-.048-.271-.184-.709-.302-2.532-.68-6.946-3.883-6.452-4.682.19-.308,3.668-2.983,3.878-2.983.123,0,.628.36,1.122.801.869.774,2.213,1.614,2.356,1.471.038-.038-.329-.298-.815-.577-.487-.279-1.182-.813-1.544-1.185-.787-.808-1.288-.861-2.023-.213M200.407,42.236c-.547.399-.588,4.451-.049,4.829.499.35,19.095.415,19.442.068.136-.136.2-.926.2-2.466c0-1.541-.064-2.331-.2-2.467-.32-.32-18.953-.285-19.393.036m19.104.103c.293.157.322.368.322,2.328s-.029,2.17-.322,2.327c-.211.113-3.47.173-9.428.173-5.957,0-9.216-.06-9.427-.173-.535-.286-.489-4.438.052-4.655.541-.218,18.397-.217,18.803,0M15.333,44.633c0,1.567.064,2.364.2,2.5.733.733,16.249.152,17.039-.638.2-.201.018-.209-.366-.017-1.12.558-1.494.587-8.535.649-3.894.034-7.325.017-7.625-.04l-.546-.102v-2.229c0-1.627.056-2.251.208-2.312.125-.051.091-.09-.083-.098-.264-.011-.292.203-.292,2.287m281,1.898c0,.056.421.99.935,2.077.515,1.086,1.22,2.613,1.567,3.392s.931,2.054,1.297,2.833s1.751,3.779,3.079,6.667c1.327,2.887,2.72,5.907,3.094,6.71c1.039,2.226,1.219,2.033-1.937,2.086l-2.715.046-.768-1.63c-.853-1.81-2.58-5.553-4.003-8.673-.513-1.124-.968-2.008-1.012-1.965-.044.044.08.419.275.834s.355.784.355.819c0,.036.403.918.896,1.961c1.51,3.198,2.104,4.483,2.104,4.556c0,.208,1.909,4.025,2.065,4.128.222.148,5.129.171,5.505.027.384-.148.331-.433-.32-1.71-.321-.629-.583-1.183-.583-1.23s-.375-.876-.834-1.843c-.458-.967-.833-1.792-.833-1.834c0-.041-.455-1.041-1.011-2.22-1.165-2.472-1.273-2.706-2.646-5.729-.562-1.237-1.24-2.7-1.507-3.25-.939-1.937-2.036-4.326-2.292-4.992-.233-.605-.711-1.319-.711-1.06M82.194,47.838c.174.102.421.104.666.006.341-.137.306-.157-.277-.162-.508-.004-.601.033-.389.156M366.3,48.19c.344.361,5.794.419,6.551.07.541-.25.544-.256.066-.136-.69.174-5.904.159-6.417-.018-.349-.12-.381-.106-.2.084M311.444,58.444c-.202.203-.115.389.181.387.249-.002.255-.026.042-.164-.17-.11.386-.163,1.718-.164c1.255-.002,1.931.057,1.866.162-.059.096.012.121.171.06.218-.084.228-.133.05-.246-.262-.166-3.865-.197-4.028-.035m4.389,2.535c0,2.652.061,2.948.569,2.754.209-.081.265-.362.265-1.334v-1.232h1.243h1.243l.048,1.291c.044,1.165.082,1.292.382,1.292.32,0,.334-.111.334-2.667c0-2.555-.014-2.666-.334-2.666-.3,0-.334.115-.346,1.166l-.014,1.167.063-1.125c.047-.844.123-1.125.305-1.125.202,0,.242.434.242,2.583c0,2.152-.04,2.584-.243,2.584-.187,0-.254-.294-.291-1.292l-.049-1.292h-1.333-1.334L316.5,62.32c-.165,2.455-.5,1.637-.5-1.223c0-2.161.041-2.597.242-2.597.18,0,.258.269.303,1.042l.061,1.041-.011-1.083c-.011-.993-.043-1.088-.387-1.137l-.375-.053v2.669m5.117-2.54c-.267.267-.131,5.187.147,5.293.803.308,3.373.016,3.014-.343-.071-.071-.188-.034-.26.082-.091.148-.52.196-1.449.162l-1.319-.05-.046-2.541-.046-2.542l1.546.003c1.06.001,1.468.053,1.296.164-.211.136-.202.162.056.164.171.001.275-.09.236-.206-.075-.228-2.964-.397-3.175-.186m5.717,2.551c0,2.641.061,2.937.568,2.743.217-.084.267-.406.274-1.792l.008-1.691.26.667c.143.366.392.966.553,1.333s.343.828.405,1.026c.316,1.021.772.628,1.575-1.36l.673-1.666.009,1.691c.007,1.419.053,1.707.286,1.797.501.192.565-.149.518-2.751l-.046-2.57h-.415c-.418,0-.987.82-.984,1.416c0,.138.137-.087.304-.5.207-.512.415-.767.657-.803.349-.052.355-.01.355,2.556c0,3.164-.358,3.69-.5.734-.09-1.859-.247-2.098-.629-.954-.132.394-.294.792-.359.884-.066.092-.22.486-.343.877-.465,1.474-.672,1.343-1.591-1.006-.757-1.935-.883-1.897-.947.284-.033,1.137-.113,1.673-.256,1.72-.161.054-.209-.524-.209-2.528c0-2.5.013-2.597.339-2.597.196,0,.402.159.489.375.15.371.151.371.162.018.011-.368-.276-.56-.837-.56-.301,0-.319.149-.319,2.657m6.283-2.551c-.174.174-.141,5.193.035,5.302.589.364.691-.067.644-2.717-.045-2.588-.177-3.087-.679-2.585m1.967.015c.183.045.445.168.583.272.217.166.22.153.021-.101-.126-.16-.388-.283-.583-.272-.337.018-.338.023-.021.101m3.2-.015c-.064.064-.117.892-.117,1.839c0,2.083-.018,2.087-1.167.29-.504-.788-.975-1.47-1.048-1.514-.142-.088,1.01,1.834,1.604,2.675.768,1.088.764,1.093.814-1.084.073-3.179.44-2.901.507.384l.053,2.554-.007-2.581c-.006-2.57-.131-3.071-.639-2.563m1.716.013c0,.072.683.107,1.517.077c1.051-.037,1.484.001,1.408.125-.061.099-.025.179.079.179.105,0,.16-.093.122-.208-.077-.233-3.125-.402-3.126-.173m3.945-.008c-.171.171-.132,5.19.04,5.297.447.276.682-.125.682-1.164c0-.996.023-1.059.419-1.128.383-.067.38-.071-.042-.053-.444.02-.463.06-.544,1.091-.177,2.273-.5,1.375-.5-1.39v-2.597h1.1c1.766,0,2.423.708,1.91,2.058-.087.228-.293.449-.459.492-.261.068-.264.081-.018.097.648.045,1.081-1.545.584-2.147-.48-.581-2.749-.978-3.172-.556m-10.361,2.639c0,1.83-.054,2.491-.209,2.542-.16.054-.208-.527-.208-2.542c0-2.014.048-2.595.208-2.541.155.051.209.712.209,2.541m-20.35.167c0,1.375.026,1.915.057,1.201.031-.715.031-1.84,0-2.5-.032-.661-.058-.076-.057,1.299m.666,0c.001,1.375.026,1.915.058,1.201.031-.715.031-1.84-.001-2.5-.031-.661-.057-.076-.057,1.299m7.819-1.5c.001.55.032.755.069.455.037-.299.036-.749-.002-1-.038-.25-.068-.005-.067.545m18.781-.093c0,.453.075.87.167.926.103.064.167-.248.167-.823c0-.51-.075-.927-.167-.927s-.167.371-.167.824m4.055.26c.001.641.031.883.067.538.036-.346.035-.871-.001-1.167-.037-.296-.067-.013-.066.629m1.445-1.014c0,.066.113.233.25.371.138.137.25.427.25.643s-.112.505-.25.643c-.374.373-.301.538.084.19.2-.182.333-.513.333-.833s-.133-.652-.333-.834c-.184-.166-.334-.247-.334-.18M328.13,60.091c.155.417.308.677.342.577.059-.177-.422-1.335-.555-1.335-.037,0,.059.341.213.758m8.178,1.034c.533.802,1.13,1.721,1.328,2.042.197.32.36.525.361.455.006-.28-2.346-3.948-2.536-3.952-.067-.002.314.653.847,1.455m-6.294-.583c-.689,1.782-.71,1.815-.945,1.504-.124-.163-.227-.423-.23-.578s-.08-.327-.17-.383c-.182-.113-.102.194.273,1.04.337.759.428.653,1.15-1.333.24-.662.169-.89-.078-.25m-115.28.024c-.049.128-.066.521-.037.875l.053.642l34,.046c18.7.025,34.173.004,34.384-.047.466-.113.494-1.582.033-1.707-.197-.053-.203-.034-.03.088.136.095.199.402.166.804l-.053.65-34.224.042-34.225.042.058-.834c.059-.859.029-1.004-.125-.601m108.929.246c.181.126-.063.184-.917.221l-1.163.05-.049,1.125c-.043.994-.014,1.124.25,1.112.175-.008.213-.048.091-.097-.133-.054-.208-.436-.208-1.063v-.978l1.125-.049c1.001-.044,1.449-.273.845-.433-.149-.04-.141-.004.026.112m18.92.021c.064.104-.243.167-.81.167-1.377,0-1.44.051-1.44,1.175c0,.534.075,1.018.167,1.075.105.065.167-.304.167-.99v-1.093h1.083c.852,0,1.083-.054,1.083-.25c0-.138-.079-.25-.176-.25s-.13.075-.074.166m3.936,1.459c.368.664.648,1.019.648.821c0-.159-.816-1.446-.916-1.446-.043,0,.077.281.268.625m-.363.646c.182.378.445.732.587.786.338.13.783-.047.652-.259-.064-.103-.161-.08-.253.059-.156.238-.325.094-1.02-.866-.243-.336-.237-.286.034.28m-3.323.546c0,.153-.387.192-1.484.153-.817-.03-1.45.003-1.407.071.122.197,2.857.149,2.982-.052.06-.098.064-.223.009-.278s-.1-.007-.1.106" fill="#757987" fill-rule="evenodd"/><path d="M399.749,37.417c0,20.625.019,29.037.043,18.695.023-10.343.023-27.218,0-37.5-.024-10.283-.043-1.82-.043,18.805M272.295,6.26c-.051.052.288.913.753,1.914.465,1.002.873,1.794.906,1.76.055-.054-.516-1.374-1.289-2.976l-.301-.625h2.579h2.58l.751,1.625c.414.894.889,1.925,1.057,2.292.664,1.454,2.414,5.24,3.005,6.5.344.733,1.014,2.196,1.489,3.25c1.265,2.805,1.702,3.696,1.777,3.621.037-.037-.297-.848-.741-1.803-.444-.954-.96-2.072-1.147-2.485-.187-.412-1.053-2.287-1.924-4.166-.871-1.88-2.082-4.503-2.692-5.83-1.623-3.531-1.15-3.17-4.157-3.17-1.404,0-2.594.042-2.646.093M274,10.212c0,.053,2.074,4.6,3.039,6.663.375.803.71,1.432.743,1.399.033-.034-.607-1.515-1.423-3.292-.815-1.778-1.638-3.588-1.828-4.024-.281-.642-.531-.995-.531-.746m92.75,6.124c-.367.083-.892.229-1.167.324l-.5.172.5-.082c.275-.045.913-.165,1.417-.268.893-.181,4.446-.118,5.333.094l.417.1-.417-.197c-.516-.244-4.666-.35-5.583-.143m-284.622.785c.3.037.75.036,1-.002s.005-.068-.545-.067-.755.032-.455.069m35.914-.002c.252.039.664.039.916,0c.252-.038.046-.069-.458-.069s-.71.031-.458.069M78.75,17.35c-.275.087-.913.285-1.417.442-2.616.811-6.5,3.455-6.5,4.424c0,.383,2.982,3.607,3.342,3.613.143.002.668-.369,1.167-.825c1.026-.938,2.349-1.697,3.774-2.165.532-.175.855-.322.717-.326-.872-.028-3.294,1.214-4.55,2.334-.506.451-.984.82-1.063.82-.276,0-3.22-3.093-3.22-3.382c0-1.044,5.533-4.544,7.32-4.631.433-.021,1.625-.452,1.263-.457-.183-.002-.558.067-.833.153m6.667-.017c.183.079.483.144.666.144h.334l-.334-.144c-.183-.078-.483-.143-.666-.143h-.334l.334.143m29.333,0l-.333.144h.333c.183,0,.483-.065.667-.144l.333-.143h-.333c-.184,0-.484.065-.667.143m6.583.043c.321.097,1.138.347,1.815.556s1.165.32,1.083.247c-.181-.163-1.021-.46-2.197-.775-1.009-.271-1.584-.294-.701-.028m241.568.43c-1.322.858-2.323,1.911-2.913,3.064-.635,1.241-.626,1.475.012.318.922-1.674,1.757-2.515,3.583-3.611.367-.22.585-.402.485-.405-.101-.003-.626.282-1.167.634m-347.3-.042c-.193.503-.111,3.993.099,4.203.147.147,1.599.2,5.494.2c4.883,0,5.362.025,6.183.333c2.719,1.017,3.24,4.326.944,5.99-.388.281-.604.51-.482.51.395,0,1.797-1.612,1.982-2.28.484-1.744-.17-3.215-1.843-4.141l-.895-.496L21.417,22l-5.667-.083v-2.084-2.083l6.036-.044c6.276-.045,6.445-.031,8.631.707.285.096.293.086.056-.067-1.322-.856-14.568-1.375-14.872-.582m27.98.111c-.243.996,0,29.037.252,29.055.154.012.168-.009.037-.052-.469-.156-.193-4.26.297-4.396.262-.073.308-.122.125-.132-.388-.022-.37-.277.04-.564.412-.288,2.838-2.453,3.793-3.385l.708-.69v-9.842c0-5.413-.045-9.96-.101-10.105-.187-.488-5.03-.384-5.151.111m43.502-.118c.956.346,1.807.578,1.687.458-.159-.159-1.809-.716-2.097-.708-.141.004.044.117.41.25m26.167-.013c-.666.305-.337.312.5.011.367-.132.517-.24.333-.24-.183,0-.558.103-.833.229m20.493-.036c-.237.623.014,29.183.257,29.249.186.051.196.03.041-.08-.166-.117-.201-3.162-.167-14.637l.043-14.49h2.458c1.352,0,2.459-.056,2.458-.125c0-.23-5.001-.148-5.09.083m15.465.085c-.346.349-8.133,10.008-8.645,10.725-.195.272-.605.77-.911,1.107l-.557.611-.114-.409c-.114-.409-.114-.409-.131.048-.034.936.534.378,3.899-3.833c1.886-2.361,3.521-4.405,3.632-4.542.112-.137.501-.625.865-1.083.364-.459,1.028-1.265,1.474-1.792l.813-.958h2.817c1.549,0,2.817.039,2.817.087c0,.049-.469.69-1.042,1.425s-1.229,1.578-1.458,1.874c-.229.295-.817,1.023-1.305,1.617-.992,1.206-1.048,1.275-1.864,2.33-.319.412-.805,1.021-1.081,1.353-.275.332-.969,1.194-1.542,1.917-.572.722-1.643,2.063-2.379,2.98-1.779,2.217-1.837,2.135,1.504,2.101l2.75-.028l2.333,3.032c1.284,1.668,2.709,3.519,3.167,4.115.458.595.983,1.289,1.167,1.542.183.252.76,1.009,1.281,1.682c2.626,3.386,2.464,3.132,2.01,3.152-.183.009-.212.046-.078.1.723.29.687-.143-.095-1.151-.445-.575-1.179-1.524-1.631-2.11-.451-.586-1.145-1.486-1.543-2-.696-.903-2.397-3.122-3.778-4.931-.366-.481-1.138-1.484-1.715-2.231l-1.05-1.356h-2.659c-1.641,0-2.659-.063-2.659-.165c0-.195.578-.947,4.75-6.17c1.283-1.607,2.539-3.183,2.791-3.502s.909-1.142,1.46-1.83c.552-.687,1.29-1.625,1.642-2.084.352-.458.763-.936.915-1.062.151-.125.275-.369.275-.541c0-.465-5.664-.483-6.125-.02m23.893-.029c-.055.145-.101,1.154-.101,2.244c0,2.405-.085,2.325,2.489,2.325c2.277,0,2.279-.041-.114,1.933-1.077.888-2.053,1.731-2.168,1.874-.341.424-.218,20.765.126,20.79.144.011.162-.011.042-.051-.164-.055-.208-2.26-.208-10.275v-10.205l.541-.505c.298-.278,1.105-.963,1.792-1.521c2.766-2.249,2.76-2.206.292-2.209-2.853-.003-2.644.184-2.588-2.31l.046-2.104h5.833c3.209,0,6.096.056,6.417.124l.583.123-.583-.236c-.921-.372-12.256-.37-12.399.003m27.475-.056c-.044.115-.06,3.921-.036,8.459l.043,8.25l9.398.043c6.916.031,9.459-.008,9.63-.15.318-.263.25-4.344-.074-4.409-.116-.023-.135-.005-.041.042.184.091.244,3.672.07,4.127-.091.236-1.084.263-9.5.263h-9.399v-8.334-8.335l9.458.043l9.458.043.047,1.976c.065,2.711.855,2.441-7.133,2.441-6.042,0-6.806.029-6.896.263-.055.145-.101,1.752-.101,3.57c0,3.613.033,3.838.559,3.823.352-.011.351-.013-.021-.163l-.378-.152.045-3.546.045-3.545l6.881-.084c5.873-.071,6.905-.12,7.039-.333.238-.377.207-4.057-.037-4.3-.296-.297-18.943-.288-19.057.008m23.52-.062c-.108.174,4.904,12.588,5.189,12.854.176.164-.178-.788-1.242-3.333-2.081-4.982-3.71-9.057-3.71-9.282c0-.184.484-.218,2.529-.181l2.529.046.9,2.167c1.88,4.528,3.427,8.088,3.488,8.027.035-.035-.456-1.293-1.09-2.796-.635-1.502-1.619-3.838-2.187-5.19L229.469,17.5h-2.641c-1.453,0-2.682.066-2.732.146m34.946-.036c-.115.047-.209.168-.209.271c0,.129.061.125.2-.014.203-.203,4.975-.303,5.169-.109.051.05-.122.665-.384,1.366-.261.701-.45,1.299-.42,1.33.116.115,1.118-2.626,1.019-2.786-.105-.17-4.968-.222-5.375-.058m42.569.001c-.206.206-.126,4.308.089,4.522.132.132.839.2,2.073.2c2.437,0,2.437.008-.104,2.101l-2.172,1.788.043,10.334c.035,8.214.087,10.342.256,10.376.117.024.135.005.041-.042-.198-.098-.241-20.37-.043-20.64.068-.092.477-.451.91-.799s.883-.723,1-.834c.117-.11.551-.473.963-.807c2.029-1.641,2.028-1.643-.563-1.643-2.57,0-2.462.11-2.401-2.441l.047-1.976h5.833c3.209,0,6.096.056,6.417.124l.583.123-.583-.236c-.616-.249-12.15-.389-12.389-.15m27.49.153c-.223.581-.109,4.038.142,4.288.198.198,1.187.259,5.375.329c2.822.048,5.394.164,5.715.258c1.216.358,1.446.393.893.136-.965-.449-2.844-.608-7.184-.608-5.316,0-4.901.207-4.839-2.419l.047-1.998h5.75c3.162,0,6.05.054,6.417.121l.666.12-.666-.233c-1.056-.368-12.174-.364-12.316.006m47.242.354c3.663,2.199,3.669,2.227,1.188,4.854l-1.154,1.222-.897-.68c-.979-.743-2.978-1.848-3.338-1.846-.124.001.375.297,1.108.658.733.36,1.696.958,2.14,1.329.984.821.951.834,2.702-1.078c1.834-2.004,1.825-1.971.82-2.857-.829-.731-2.701-1.938-3.329-2.147-.183-.061.159.184.76.545M48.626,27.637c.024,5.439-.014,9.987-.083,10.108-.227.395-4.616,4.23-4.748,4.148-.159-.099-.172-23.96-.013-24.12.064-.063,1.17-.094,2.458-.069l2.343.046.043,9.887m138.403-9.23c6.607,2.746,7.249,11.945,1.076,15.428-.516.292-.984.603-1.039.693-.108.175.111.511,4.921,7.552c2.693,3.942,3.14,4.681,2.891,4.78-.248.098-.236.118.08.128.574.018.509-.115-1.5-3.058-5.277-7.731-6.322-9.287-6.268-9.332.033-.027.429-.262.881-.523c6.228-3.597,5.862-12.784-.625-15.653-.526-.232-1.047-.419-1.159-.415s.222.184.742.4m128.52.008c6.571,2.729,7.22,11.668,1.118,15.388-.596.363-1.075.762-1.065.887.016.199,1.742,2.791,6.7,10.058c1.164,1.706,1.321,2.015,1.072,2.113-.241.096-.227.118.084.127.598.019.575-.02-3.708-6.304-2.246-3.296-4.083-6.028-4.083-6.072s.427-.322.95-.617c5.047-2.848,5.967-9.742,1.846-13.825-.973-.964-3.026-2.182-3.647-2.163-.128.004.202.188.733.408m26.632-.355c.038.033.294.11.569.172.365.081.433.066.25-.058-.225-.152-.987-.258-.819-.114m-84.92,3.636c-6.374,15.298-5.695,14.014-6.496,12.294-.317-.682-.581-1.16-.587-1.063s.139.488.322.867.335.75.337.823.143.314.312.534l.309.402.293-.448c.161-.246.609-1.214.996-2.151.734-1.781,4.092-9.783,5.36-12.773.405-.955.713-1.804.685-1.888-.028-.083-.717,1.448-1.531,3.403M125.7,19.081c1.56.913,1.596.966,1.108,1.666C125.541,22.563,124.482,24,124.41,24c-.045,0-.493-.232-.996-.516-1.152-.65-1.194-.541-.061.163c1.083.673,1.205.622,2.314-.981.504-.728,1.085-1.562,1.291-1.853.575-.81.412-1.058-1.288-1.965-1.447-.77-1.427-.62.03.233m-94.45-.228c2.163,1.605,3.709,4.03,3.76,5.897.007.275.077.65.155.833.253.596-.035-1.456-.332-2.367-.589-1.804-2.257-3.85-3.713-4.555-.217-.105-.163-.026.13.192m78.921.272c-1.377.804-3.338,2.628-3.336,3.104.001.337,3.035,3.589,3.49,3.741.107.035.659-.38,1.226-.924.568-.543,1.392-1.197,1.832-1.454.439-.256.764-.501.722-.543-.149-.149-1.887,1.084-2.719,1.929-.463.471-.918.855-1.012.855-.26,0-3.374-3.379-3.374-3.661c0-.379,1.947-2.122,3.208-2.874.971-.578,1.269-.798,1.08-.798-.025,0-.528.281-1.117.625m167.687-.542c-.004.23,1.61,3.541,1.625,3.334.006-.092-.356-.917-.805-1.834-.45-.916-.819-1.591-.82-1.5m67.394.63c1.787.941,3.264,2.105,4.215,3.321c1.222,1.564,1.622,1.978,1.012,1.049-1.34-2.042-5.226-5.118-6.416-5.078-.081.003.455.321,1.189.708M90.167,18.888c0,.036.506.391,1.125.788c2.508,1.612,4.356,3.995,5.475,7.059.164.45.326.737.359.637.221-.663-1.68-4.026-3.209-5.677-1.07-1.155-3.75-3.161-3.75-2.807m153.519,2.005c-.261.315-4.195,9.154-4.111,9.238.038.037.227-.295.42-.74c3.02-6.943,3.774-8.475,4.193-8.524.584-.069.48-.263,3.229,5.966c1.355,3.071,2.539,5.659,2.631,5.75.231.23.263.307-2.13-5.083-3.281-7.391-2.991-6.833-3.556-6.833-.268,0-.572.102-.676.226m19.431-.025c-.893,2.13-1.439,3.532-1.393,3.578.032.032.407-.781.833-1.805.427-1.025.748-1.892.713-1.926-.034-.035-.103.034-.153.153m105.346.421c.392.035.992.035,1.333-.001s.021-.065-.713-.064c-.733,0-1.012.03-.62.065m-1.546.211c-.21.09-.241.143-.084.143.138,0,.4-.064.584-.143.21-.09.241-.143.083-.143-.137,0-.4.064-.583.143m4,0c.183.079.446.143.583.143.158,0,.127-.053-.083-.143-.184-.079-.446-.143-.584-.143-.157,0-.126.053.084.143m-5.186.484c-.471.288-1.231,1.165-1.231,1.423c0,.057.244-.173.542-.512.298-.34.766-.754,1.041-.922s.425-.305.334-.305c-.092,0-.4.142-.686.316m-249.259.271c-.611.137-1.361.365-1.667.507-.348.16-.4.214-.138.144c3.079-.833,4.815-.868,6.878-.14.37.131.707.205.747.164.499-.499-4.184-1.042-5.82-.675m-35.805.059c-.321.056.504.105,1.833.108c1.484.003,2.159-.041,1.75-.115-.788-.143-2.758-.139-3.583.007m97.581.022c-.208.337-.084,8.059.133,8.197.337.214,3.795.134,4.952-.115c1.057-.227,1.061-.23.167-.117-.504.064-1.854.116-3,.116h-2.083v-4-4l1.916-.048c4.196-.105,5.904.684,6.59,3.044.48,1.653-.805,4.42-2.054,4.42-.1,0-.229.075-.285.166-.196.317.825-.18,1.306-.635c2.539-2.402,1.419-6.077-2.14-7.019-.864-.229-5.361-.236-5.502-.009M279.5,22.199c0,.048.375.889.833,1.868c1.125,2.401,1.179,2.266-.916,2.266-1.749,0-2.417.227-2.417.82c0,.131-.476,1.197-2.537,5.68-.19.413-.593,1.289-.895,1.947s-.703,1.515-.891,1.904-.305.744-.261.788c.045.044.35-.512.678-1.237.329-.725.789-1.731,1.024-2.235s.611-1.329.836-1.833c.774-1.733,1.558-3.419,2.093-4.5l.536-1.084l1.776-.047c2.315-.061,2.296-.025,1.225-2.333-.795-1.712-1.084-2.247-1.084-2.004m27.278.079c-.268.268-.122,8.182.152,8.288.489.187,3.811.087,4.903-.148c1.057-.227,1.061-.23.167-.117-.504.064-1.854.116-3,.116h-2.083l-.045-4.042-.045-4.042l2.045.002c2.106.001,4.091.232,4.37.508.087.086.235.157.328.157.376,0-.536-.46-1.269-.641-.828-.204-5.334-.27-5.523-.081m52.889-.047c0,.052.971.874,2.159,1.828c2.516,2.02,2.516,1.941-.007,1.941-2.504,0-3.069.366-2.314,1.5.117.176.135.039.059-.458l-.107-.709h2.438h2.437l.995.803c.952.766,4.112,2.314,4.314,2.112.052-.052-.081-.14-.296-.197-.997-.26-3.424-1.611-4.2-2.338l-.851-.795.082-1.143c.048-.668.022-1.049-.061-.918-.079.125-.144.508-.146.851-.003.825-.262.809-1.371-.085-2.084-1.679-3.131-2.479-3.131-2.392m-273.818.597c3.497,1.151,5.784,3.69,6.574,7.3.115.525.217.766.227.535.128-3.165-4.536-8.245-7.483-8.15-.138.004.169.146.682.315m228.609.891c.39.425.709.863.709.972s.046.152.102.096c.164-.164-.566-1.225-1.064-1.547-.349-.226-.29-.115.253.479m27.375-.651c0,.038.35.238.776.445c6.584,3.187,6.444,14.199-.224,17.663-.533.276-.781.455-.552.396c5.043-1.29,7.486-9.479,4.4-14.744-.987-1.685-4.4-4.6-4.4-3.76m-56.166.835c0,.069.44,1.075.979,2.236s1.562,3.369,2.273,4.907c.712,1.538,1.323,2.768,1.358,2.732.061-.061-4.37-9.759-4.533-9.923-.042-.042-.077-.021-.077.048m65.333.73c0,.074.063.205.141.292.077.087.355.674.617,1.305.263.631.504,1.067.537.97.065-.195-1.049-2.7-1.201-2.7-.052,0-.094.06-.094.133m-89.643.386c-.084.219-.431,1.073-.771,1.898-.341.825-.941,2.287-1.335,3.25-.394.962-1.409,3.4-2.257,5.416-1.675,3.989-2.782,6.654-3.944,9.5-1.147,2.809-1.558,3.006-2.394,1.143-.273-.609-.535-1.07-.581-1.023-.282.282,1.032,2.216,1.539,2.265.665.064.31.778,3.818-7.67c1.61-3.876,3.673-8.84,4.585-11.03s1.621-4.019,1.575-4.064c-.045-.046-.151.096-.235.315m54.06,1.398c0,.761.055,1.298.122,1.192s.123-.642.123-1.192-.056-1.087-.123-1.193-.122.431-.122,1.193m-280.39.057c-.043.892-.495,2.244-1.037,3.098l-.501.79l1.16,1.132c3.313,3.235,3.675,8.545.835,12.267-.851,1.115-3.146,2.715-3.948,2.752-.204.01-.22.039-.058.104.447.178,2.418-1.01,3.522-2.122c3.56-3.589,3.448-9.677-.241-13.128l-1.04-.973.476-.822c.607-1.046,1.013-2.409.926-3.11l-.068-.545-.026.557m33.072.234c-.291.453-.773,2.27-.746,2.816.016.333.03.342.089.059.691-3.269.476-3.083,3.56-3.083c2.87,0,2.789-.049,2.144,1.295-2.678,5.58.392,12.772,6.021,14.108l.416.099-.416-.193c-.229-.107-.804-.362-1.278-.569-4.904-2.139-7.017-8.552-4.472-13.574.674-1.33.669-1.333-2.408-1.333-2.584,0-2.676.012-2.91.375m36.087-.148c-.962,1.159-1.296,7.266-.541,9.906.514,1.796.636,1.676.151-.148-.735-2.769-.343-9.052.605-9.69.1-.068,1.359-.124,2.797-.125c2.581-.003,3.035.09,2.67.546-.256.32-.926,2.282-.817,2.391.055.055.152-.116.216-.379s.292-.881.508-1.373c.215-.493.392-.999.392-1.125c0-.334-5.704-.337-5.981-.003m248.171,1.107c0,.137.064.4.143.583.09.21.143.241.143.083c0-.137-.064-.4-.143-.583-.09-.21-.143-.241-.143-.083M97.2,27.917c0,.183.06.521.133.75.106.33.134.347.134.083c0-.183-.06-.521-.134-.75-.105-.33-.133-.347-.133-.083m262.468.009c.003.611,1.755,2.625,2.978,3.423.713.465.727.468.187.042-.97-.767-2.157-2.031-2.676-2.85-.27-.425-.49-.702-.489-.615m-44.676.505c-.246.461-1.204,1.272-1.724,1.462-.174.063-.274.156-.224.207.267.266,2.289-1.468,2.289-1.963c0-.239-.103-.15-.341.294m-81.159-.238c0,.268,1.533,3.83,1.614,3.749.03-.03-.287-.871-.705-1.868-.697-1.664-.909-2.102-.909-1.881m48.055.515c-.243.384-4.388,9.164-4.388,9.294c0,.401,8.975.52,9.292.123.118-.147-.07-.699-.638-1.875-.95-1.969-2.023-4.251-2.693-5.726-.264-.583-.514-1.026-.556-.985-.041.041.368,1.011.908,2.155.541,1.144,1.17,2.488,1.398,2.985s.654,1.41.946,2.027c.293.618.485,1.199.428,1.292-.127.205-8.691.236-8.817.031-.047-.075.482-1.332,1.174-2.791.693-1.46,1.655-3.488,2.138-4.507.962-2.029,1.144-2.247,1.425-1.721.104.193.225.315.27.271.129-.13-.334-.781-.555-.781-.11,0-.26.094-.332.208M352.8,29.75c.148,1.483.15,3.69.002,5.083-.104.978-.097,1.018.072.417.24-.856.235-5.128-.007-6-.162-.583-.17-.521-.067.5M26.917,29.167c-.322.138-.321.143.031.155.201.006.412-.064.469-.155.122-.197-.042-.197-.5,0M97.583,32.25c0,1.742.051,2.829.113,2.417.062-.413.113-1.5.113-2.417s-.051-2.004-.113-2.417c-.062-.412-.113.675-.113,2.417M15.7,29.533c-.276.276-.276,3.991,0,4.267.149.149,1.853.2,6.637.2c7.81,0,8.298.117,9.402,2.25.142.275.259.38.26.233.002-.478-.967-1.617-1.784-2.097l-.798-.469-6.834-.084-6.833-.083v-2.083-2.084l5.417-.086l5.416-.087-5.341-.038c-3.976-.029-5.393.012-5.542.161m354.947.237c.493.225.93.375.972.333.093-.093-1.423-.775-1.682-.756-.103.007.216.198.71.423m-261.819-.006c-.003.084-.076.697-.162,1.363-.199,1.532.263,5.166.613,4.816.048-.048.005-.336-.095-.641-.345-1.044-.49-2.926-.328-4.237.087-.7.118-1.314.068-1.363-.05-.05-.093-.022-.096.062M67.232,32.167c0,1.237.026,1.743.058,1.125.032-.619.032-1.632,0-2.25-.032-.619-.058-.113-.058,1.125M373.631,31.08c3.825,1.854,5.471,3.441,6.571,6.337.266.7.301.74.222.25-.262-1.635-1.974-3.897-3.926-5.188-1.091-.722-4.204-2.313-4.523-2.312-.124.001.621.411,1.656.913m-134.86.608c-.337.747-.576,1.396-.53,1.442s.153-.096.24-.315c.086-.219.354-.839.595-1.377.241-.539.409-1.009.373-1.045s-.341.547-.678,1.295m-9.438-.966c0,.103,2.923,7.028,3.055,7.236.089.142.612.209,1.627.209c1.895,0,1.913.042.923,2.191-.424.92-.771,1.766-.771,1.879c0,.468,1.948,4.92,2.246,5.135.646.465,1.197.003,1.837-1.539.247-.596.669-1.562.938-2.147.269-.586.455-1.098.414-1.139-.075-.076-.541.897-1.115,2.331-1.419,3.546-1.774,3.415-3.677-1.358l-.49-1.229.527-1.271c.289-.698.676-1.565.859-1.925.465-.919.19-1.095-1.713-1.095h-1.442l-.268-.625c-.147-.344-.507-1.225-.8-1.958-.293-.734-.587-1.409-.653-1.5-.066-.092-.215-.461-.331-.821-.367-1.139-1.166-2.765-1.166-2.374M363.5,31.902c0,.207,4.806,2.514,4.946,2.374.033-.033-.409-.268-.984-.521s-1.702-.79-2.504-1.193-1.458-.7-1.458-.66m-119.552.454c-.139.217-.453.881-.698,1.477s-.709,1.671-1.03,2.388-.55,1.338-.51,1.378c.079.079.872-1.63,1.806-3.888.799-1.935.566-2.213,3.146,3.747c1.042,2.406,1.92,4.349,1.951,4.318.12-.12-3.873-9.275-4.179-9.58-.201-.202-.27-.179-.486.16m-8.448-.091c0,.345,1.42,3.235,1.568,3.192.189-.056,1.09-1.748,1.085-2.04-.001-.092-.225.264-.497.791-.635,1.231-.637,1.231-1.388-.541-.568-1.343-.768-1.707-.768-1.402M92.392,34.531c-.571,3.323-2.486,5.449-6.559,7.283l-.416.188.416-.098c3.31-.776,7.073-5.196,6.8-7.985-.035-.355-.106-.175-.241.612m50.087-.656c-.138.115-.621.688-1.074,1.273-.452.586-1.052,1.336-1.333,1.667-.843.993-1.27,1.678-1.182,1.896.062.151.087.146.097-.019.023-.402,3.517-4.692,3.815-4.684.168.005,1.689,1.855,3.781,4.6c6.022,7.902,6.415,8.393,6.715,8.38.255-.01.257-.023.015-.125-.312-.131-.578-.447-2.48-2.946-.767-1.009-1.751-2.294-2.186-2.857-1.533-1.979-3.69-4.824-4.622-6.093-.979-1.334-1.128-1.439-1.546-1.092m147.854.199c0,.078.256.674.568,1.325.533,1.112,2.272,4.861,3.088,6.659.202.444.401.775.441.734.04-.04-.257-.779-.661-1.641-.403-.862-.973-2.093-1.265-2.734-.292-.642-.839-1.842-1.214-2.667-.662-1.452-.957-1.969-.957-1.676m79.084.648c.458.196,1.469.67,2.247,1.055s1.436.678,1.463.651c.134-.134-4.14-2.131-4.447-2.078-.053.009.278.177.737.372m-302.064.234c-.021.572.506,2.667.92,3.657.442,1.056.372.505-.121-.967-.265-.79-.549-1.84-.631-2.333-.11-.661-.154-.754-.168-.357m110.925.322c-.061.061-.111,2.68-.111,5.821c0,4.963-.033,5.72-.254,5.788-.177.055-.164.071.042.052.275-.025.298-.411.339-5.677.03-3.831.103-5.722.229-5.873.185-.222-.034-.322-.245-.111m2.749.001c.152.04.669.671,1.149,1.402.808,1.23,1.57,2.128.89,1.048-.954-1.515-1.792-2.56-2.039-2.543-.258.018-.258.024,0,.093m125.751-.001c-.061.061-.111,2.68-.111,5.821c0,4.963-.033,5.72-.254,5.788-.177.055-.164.071.042.052.275-.025.298-.415.339-5.766.033-4.337.094-5.771.25-5.87.124-.079.134-.132.025-.134-.099-.001-.23.048-.291.109m2.909.078c.149.125,1.904,2.665,3.899,5.644c3.749,5.597,4.036,6,4.273,6c.078,0,.01-.131-.151-.292-.16-.16-1.341-1.856-2.625-3.769-4.629-6.9-5.17-7.674-5.416-7.742-.203-.056-.2-.026.02.159m-212.428.737c-.062.334-.076.645-.03.691.045.046.134-.19.197-.525.063-.334.077-.645.031-.691s-.135.19-.198.525m255.161.403c-.817,3.645-3.86,7.312-7.482,9.015-.745.35-1.254.641-1.131.646.985.042,4.699-2.551,6.02-4.201c1.31-1.637,3.016-5.196,2.795-5.832-.04-.114-.13.054-.202.372M109.337,36.32c-.02,1.379,3.303,4.814,5.313,5.489.954.321.823.216-.579-.469-1.655-.808-3.366-2.511-4.193-4.174-.296-.595-.539-.976-.541-.846m264.683.826c2.207,1.938,1.647,4.493-1.21,5.521-.538.193-.742.323-.513.327c1.111.018,2.877-1.449,3.202-2.658.326-1.208-.63-3.062-1.905-3.695-.189-.094.003.133.426.505m-341.947.979c-.011,2.341-1.133,3.781-3.323,4.263-.309.068-.307.075.028.093c1.716.092,3.581-2.217,3.544-4.386-.023-1.286-.243-1.259-.249.03m64.462.271c-.302.745-.592,1.466-.645,1.604-.054.137.011.1.144-.083.344-.476,1.182-2.524,1.11-2.714-.033-.088-.307.449-.609,1.193m7.715-.063c.401,1.432,2.317,4.276,3.705,5.501c1.345,1.187,4.114,2.838,4.744,2.83.12-.002-.398-.298-1.151-.657-2.918-1.394-5.005-3.44-6.551-6.424-.475-.916-.811-1.479-.747-1.25m79.359.461c.165.3.475.75.69,1l.391.456-.299-.544c-.165-.3-.475-.75-.69-1l-.391-.456.299.544m87.832.647c-.251.513-.423.965-.383,1.006.041.041.271-.354.511-.878.566-1.238.466-1.338-.128-.128m109.117.392c0,.779.029,1.098.064.709.035-.39.035-1.027,0-1.417s-.064-.071-.064.708m-139.649-.559c-.864,2-1.238,2.952-1.183,3.008.034.034.161-.184.281-.485s.473-1.098.784-1.772c.311-.673.527-1.263.48-1.309-.047-.047-.21.204-.362.558M68.67,39.437c-.006.353,1.642,2.707,2.527,3.611c1.879,1.918,5.553,3.994,6.97,3.939.137-.006-.125-.119-.584-.251-3.369-.974-6.48-3.449-8.455-6.73-.251-.416-.457-.672-.458-.569m291.561,1.988c-.998.784-1.84,1.543-1.872,1.687-.11.498,3.397,3.555,4.079,3.555.078,0-.344-.317-.939-.705-1.159-.754-2.999-2.441-2.999-2.748c0-.145,1.853-1.715,3.449-2.922.133-.101.435.068.916.51c2.092,1.922,6.745,3.187,8.718,2.37.194-.08-.201-.101-.942-.049-2.819.197-5.513-.628-7.375-2.26-1.213-1.063-.889-1.123-3.035.562m-265.071-.3c-1.866,2.624-4.771,4.727-7.743,5.605-.459.136-.721.251-.584.257c2.189.085,6.796-3.179,8.743-6.195.489-.757.189-.517-.416.333m91.498,2.189c1.113,1.661,2.061,3.019,2.109,3.019.16,0-3.692-5.767-3.965-5.936-.091-.056.744,1.256,1.856,2.917m-63.405-2.225c-1.028.716-.823.765.268.064.975-.626.878-.685,2.392,1.452c1.498,2.115,1.458,2.219-1.413,3.679-.413.21-.633.382-.489.382.593.002,3.322-1.841,3.322-2.244c0-.33-2.693-3.837-2.976-3.875-.151-.019-.647.224-1.104.542m147.438-.07c-.083.219-.379.885-.657,1.481-2.167,4.643-2.119,4.503-1.548,4.497.21-.002.218-.031.039-.144-.176-.112.066-.78,1.126-3.109.742-1.631,1.314-3.001,1.271-3.045-.044-.043-.148.101-.231.32m109.655.564c-.075,1.882-2.69,4.596-5.469,5.675-.663.258-1.17.505-1.127.548.233.233,3.082-1.227,4.311-2.208c1.22-.974,2.654-3.467,2.382-4.14-.046-.115-.089-.058-.097.125m-39.679.25c-.223.144-.223.162,0,.162.137,0,.362-.073.5-.162.222-.143.222-.161,0-.161-.138,0-.363.072-.5.161m-259.625.44c1.335.244,1.581.244,2.916,0c1.236-.225,1.293-.248.375-.151-.596.064-1.421.116-1.833.116-.413,0-1.238-.052-1.833-.116-.918-.097-.861-.074.375.151m35.291-.016c.504.126,1.105.226,1.334.222s-.034-.108-.584-.232c-1.307-.295-1.937-.286-.75.01m3.5,0c-.651.15-.771.213-.416.22.275.004.875-.096,1.333-.223c1.033-.287.333-.285-.917.003m128.848-.235c-.008.058.284.771.648,1.583.365.813.663,1.366.662,1.228-.001-.253-1.284-3.006-1.31-2.811m89.736.152c-.459.072-2.687.137-4.953.145-4.899.017-4.496-.223-4.428,2.636.042,1.732.081,1.961.342,1.984.207.019.219.003.042-.052-.262-.081-.388-3.508-.152-4.123.088-.23.624-.266,4.208-.277c2.451-.007,4.679-.099,5.524-.228.779-.118,1.154-.215.833-.215s-.958.059-1.416.13m-137.806.27c-.289.289-.119,4.556.181,4.543.174-.008.207-.047.083-.097-.152-.062-.208-.671-.208-2.237v-2.153h9.399c8.416,0,9.409.028,9.5.264.174.454.114,4.035-.07,4.126-.094.047-.075.066.041.042.29-.058.394-4.031.115-4.367-.205-.246-18.797-.364-19.041-.121m-185.038.274c-.215.559.01,4.195.26,4.213.144.01.162-.012.042-.052-.364-.122-.287-3.983.083-4.199.277-.161.276-.17-.005-.175-.163-.003-.334.093-.38.213m46.885-.108c.264.107.3,4.15.038,4.28-.094.047-.075.066.042.042.38-.077.389-4.436.009-4.419-.175.008-.211.048-.089.097m212.839.265c-.146.115-.432.583-.634,1.042-.202.458-.546,1.229-.765,1.713s-.398.947-.398,1.03-.169.186-.375.231c-.363.078-.362.079.017.053.332-.023.521-.319,1.239-1.944.465-1.054.926-1.972,1.024-2.039s3.141-.123,6.762-.123c3.62,0,6.669.056,6.774.123s.734,1.306,1.397,2.753c.664,1.446,1.24,2.596,1.281,2.556.125-.125-2.287-5.172-2.577-5.395-.207-.159-1.849-.208-6.875-.208-5.029,0-6.667.049-6.87.208m19.211.162c-.008.125.346.935,1.403,3.213.34.733,1.185,2.554,1.877,4.046s1.287,2.685,1.321,2.651c.061-.061-.352-.999-1.775-4.03-.387-.825-.983-2.138-1.325-2.917-.685-1.563-1.489-3.151-1.501-2.963m48.325,3.296c-.137.089-.437.173-.666.187-.341.021-.355.038-.078.093.187.037.6-.045.917-.183.318-.138.465-.252.327-.254-.137-.002-.362.068-.5.157m-312.916.5l-.834.115.75.014c.413.008.9-.05,1.084-.129.38-.163.192-.163-1,0m83.25-.002c.137.09.431.165.652.166.535.004.4-.091-.319-.223-.41-.075-.509-.058-.333.057m9.833.002c-.343.11-.358.136-.083.148.183.008.445-.059.583-.148.292-.188.089-.188-.5,0m217.25,0l-1,.111.917.016c.504.009,1.066-.048,1.25-.127.371-.159.276-.159-1.167,0m22.417-.081c0,.194,2.668,1.136,2.811.992.043-.043.033-.077-.022-.077s-.705-.223-1.445-.496c-.739-.273-1.344-.461-1.344-.419M79.083,47.24c.367.129,1.192.229,1.834.222l1.166-.012-1.25-.121c-.687-.067-1.512-.167-1.833-.222-.575-.1-.574-.098.083.133m6.7-.134c-.058.058-.727.16-1.486.226l-1.38.12l1.166.011c1.047.01,3.034-.401,2.153-.446-.191-.009-.395.031-.453.089m29.134.134c.377.133,1.246.228,2,.221l1.333-.014-1.417-.118c-.779-.065-1.679-.164-2-.22-.573-.101-.572-.099.084.131m7.03-.132c-.059.06-.766.167-1.569.237l-1.461.128l1.5-.037c1.225-.03,2.909-.412,1.902-.431-.145-.003-.312.044-.372.103M366.333,48c.23.073.567.133.75.133.264,0,.247-.027-.083-.133-.229-.073-.567-.133-.75-.133-.264,0-.247.027.083.133m6.084.008c-.233.105-.132.12.333.049.367-.056.698-.129.736-.162.143-.127-.749-.032-1.069.113m-3.875.282c.618.032,1.631.032,2.25,0c.618-.032.112-.058-1.125-.058-1.238,0-1.744.026-1.125.058m-76.823.418c.048.115.853,1.859,1.788,3.875c2.247,4.845,4.632,10.027,5.754,12.5.499,1.1,1.263,2.713,1.698,3.584l.791,1.583l2.487.046c2.839.053,2.952.01,2.515-.959-.374-.828-.52-.787-.171.049.139.332.252.645.252.696s-1.132.073-2.516.047l-2.516-.046-1.526-3.271c-.839-1.799-1.761-3.787-2.05-4.417-1.12-2.441-2.769-6.017-3.141-6.812-1.025-2.186-2.659-5.74-2.933-6.375-.168-.389-.354-.708-.413-.708s-.068.094-.019.208m7.455,4.5c-.004.068.246.668.555,1.333.847,1.822,3.021,6.526,5.142,11.126.275.595.68,1.488.9,1.984.22.495.436.864.48.82s-.098-.449-.315-.9c-.218-.452-.996-2.133-1.73-3.738-.733-1.604-1.576-3.441-1.873-4.083s-.969-2.104-1.492-3.25c-1.033-2.26-1.655-3.489-1.667-3.292M316,61.117c0,1.6.06,2.555.154,2.458.216-.223.304-2.573.096-2.587-.092-.006-.017-.076.167-.155.183-.078.239-.148.125-.155-.144-.008-.209-.345-.209-1.095c0-.611-.072-1.083-.166-1.083-.104,0-.167.983-.167,2.617m3.305-1.45c-.032.675.015,1.197.112,1.237.111.046.111.074,0,.082-.283.022-.104,2.514.18,2.514.194,0,.236-.451.236-2.5c0-2.047-.043-2.5-.236-2.5-.176,0-.25.297-.292,1.167m1.862,1.422v2.578h1.366c.987,0,1.316-.051,1.185-.182-.106-.106-.621-.158-1.241-.125l-1.06.057.083-1.209c.052-.749.02-1.209-.083-1.211-.111-.001-.111-.043,0-.125.249-.182.212-2.185-.042-2.282-.161-.061-.208.505-.208,2.499m5.666.004c0,1.687.059,2.557.167,2.49.096-.059.167-.953.167-2.115c0-1.958.008-2.002.291-1.614.455.621.709,1.119.709,1.389c0,.136.15.514.333.84.183.327.333.69.333.807s.119.359.264.536c.235.289.253.292.169.024-.056-.177-.027-.258.07-.198.092.056.21-.034.264-.2.053-.166.165-.471.248-.677.447-1.104.537-1.316.671-1.581.081-.159.148-.385.148-.502c0-.116.15-.305.333-.42.326-.204.333-.166.333,1.7c0,1.092.072,1.952.167,2.011.108.067.167-.803.167-2.49c0-2.419-.021-2.593-.311-2.593-.219,0-.395.232-.596.792-.157.435-.365.979-.462,1.208s-.233.567-.303.75c-.278.726-.681,1.583-.745,1.583-.104,0-.601-1.152-1.346-3.125-.803-2.124-1.071-1.777-1.071,1.385M333,60.99c0,1.48.068,2.532.167,2.593.108.067.166-.803.166-2.49c0-1.617-.062-2.593-.166-2.593s-.167.941-.167,2.49m1.833,0c0,1.48.068,2.532.167,2.593.108.067.167-.606.167-1.897c0-2.274.099-2.464.771-1.475.263.388.61.851.77,1.029.161.177.292.415.292.528c0,.112.059.229.131.26.072.03.341.416.596.857.731,1.259.844.999.791-1.813-.058-3.061-.185-3.407-.185-.503c0,2.625-.009,2.625-1.75-.029-1.732-2.641-1.75-2.636-1.75.45m5.167.093v2.584h1.427c.908,0,1.389-.061,1.323-.167-.057-.092-.63-.167-1.274-.167h-1.17l.055-1.167c.033-.699-.011-1.171-.111-1.178-.092-.006-.017-.076.167-.155.183-.078.239-.148.125-.155-.14-.007-.209-.312-.209-.928c0-.621.068-.917.209-.919.223-.003-.184-.324-.417-.328-.069-.002-.125,1.16-.125,2.58m3.833-.093c0,1.48.068,2.532.167,2.593.105.065.167-.303.167-.99c0-.757.064-1.097.208-1.105.115-.006.058-.076-.125-.155l-.333-.143.333-.025c.183-.013.24-.062.125-.109-.136-.055-.208-.454-.208-1.153c0-.743.063-1.07.208-1.072.223-.003-.184-.324-.417-.328-.068-.002-.125,1.118-.125,2.487m2-2.325c0,.091.15.259.334.374.537.336.452,1.344-.163,1.933l-.497.474.497.783c.273.43.496.846.496.923c0,.192.487.583.594.476.048-.048-.179-.54-.504-1.094-.688-1.174-.719-1.397-.226-1.619.713-.322.741-2.285.029-2.012-.127.049-.226-.021-.226-.158c0-.135-.075-.245-.167-.245s-.167.074-.167.165m-32.873.144c.132.081.212.875.243,2.407.064,3.114.356,3.072.464-.067l.083-2.435-.493-.013c-.272-.008-.405.041-.297.108m-80.822,1.649c9.381.024,24.681.024,34,0c9.32-.023,1.645-.043-17.055-.043s-26.325.02-16.945.043m-17.305.671c0,.377.068.727.151.778.086.053.112-.211.061-.615-.12-.939-.212-1.009-.212-.163" fill="#9c9ca9" fill-rule="evenodd"/><path d="M273.701,6.123c.615.032,1.665.033,2.333.001.669-.032.166-.058-1.117-.058-1.284-.001-1.831.025-1.216.057M80.295,17.121c.299.037.749.036,1-.002.25-.038.005-.068-.545-.067s-.755.032-.455.069m3.58-.002c.252.039.665.039.917,0c.252-.038.045-.069-.459-.069s-.71.031-.458.069m32.25.002c.298.037.785.037,1.083,0s.055-.068-.541-.068-.84.031-.542.068m3.586-.001c.253.038.628.037.833-.003.205-.039-.002-.071-.461-.069-.458.001-.626.033-.372.072m80.733.491c-.154.154-.14,16.684.014,16.78.069.042.125-3.741.125-8.407s-.006-8.484-.014-8.484c-.007,0-.063.05-.125.111m-61.535,5.972c0,3.3.022,4.674.049,3.053s.027-4.321,0-6-.049-.353-.049,2.947m-5.37,8.699c-.021,7.992.017,14.566.086,14.609.113.07.112-10.146-.003-23.891-.024-2.888-.061,1.289-.083,9.282m-25.964-11.24l-.658.708.708-.659c.659-.613.785-.758.659-.758-.027,0-.346.319-.709.709m-14.242.01c0,.029.244.273.542.542l.542.489-.49-.541c-.456-.505-.594-.619-.594-.49m255.5.531c.311.321.603.584.649.584s-.171-.263-.482-.584-.603-.583-.649-.583.171.262.482.583m-143.055.861c-.154.154-.141,7.018.014,7.114.068.042.125-1.566.125-3.574s-.007-3.651-.014-3.651c-.008,0-.064.05-.125.111M71.917,23.833c.636.642,1.195,1.167,1.241,1.167s-.438-.525-1.075-1.167c-.636-.641-1.195-1.166-1.241-1.166s.438.525,1.075,1.166m305.156-.125l-.49.542.542-.49c.505-.456.618-.593.49-.593-.029,0-.273.243-.542.541M29.709,25.75c.002.367.036.497.076.29.039-.208.038-.508-.004-.667s-.074.01-.072.377m81.163-.078c-.299.272-.482.495-.406.495s.354-.225.617-.5c.613-.64.495-.637-.211.005m210.185.745c.001.733.03,1.012.065.62s.035-.992-.001-1.333-.064-.021-.064.713m-128.502,0c0,.641.031.883.067.538.036-.346.035-.871-.002-1.167s-.066-.013-.065.629m16.976,3.374c1.804.027,4.804.027,6.666.001c1.863-.027.386-.049-3.28-.049-3.667,0-5.191.022-3.386.048M67.059,32.25c0,.825.028,1.184.063.797s.035-1.062.001-1.5c-.035-.438-.063-.122-.064.703m5.32-.75c0,.412.032.581.072.375s.04-.544,0-.75-.072-.038-.072.375M34.5,31.052c0,.029.244.273.542.542l.541.489-.489-.541c-.456-.505-.594-.619-.594-.49m63.389,1.281c0,.688.03.969.066.625.036-.343.036-.906,0-1.25-.036-.343-.066-.062-.066.625m92.186.209l-.658.708.708-.659c.659-.613.785-.758.659-.758-.027,0-.346.319-.709.709m128.5,0l-.658.708.708-.659c.39-.362.708-.681.708-.708c0-.126-.145,0-.758.659m-246.203.625c0,.32.034.452.076.291.042-.16.042-.423,0-.583s-.076-.029-.076.292m133.17,1.458c2.543.026,6.706.026,9.25,0c2.543-.026.462-.047-4.625-.047-5.088,0-7.169.021-4.625.047m-26.421.662c.296.037.821.037,1.167.001s.104-.066-.538-.067c-.642,0-.925.029-.629.066m128.587.001c.344.036.907.036,1.25,0c.344-.036.063-.065-.625-.065-.687,0-.968.029-.625.065m66.125,1.764c0,.029.244.273.542.542l.542.489-.49-.541c-.456-.505-.594-.619-.594-.49M32.045,38.167c0,.412.033.581.073.375.039-.207.039-.544,0-.75-.04-.207-.073-.038-.073.375m106.86,4.666c0,2.246.024,3.165.053,2.042s.029-2.96,0-4.083-.053-.205-.053,2.041M46.824,39.625l-.574.625.625-.574c.344-.316.625-.598.625-.625c0-.128-.141-.008-.676.574m297.749-.083l-.49.541.542-.489c.505-.456.618-.594.49-.594-.029,0-.273.244-.542.542M82.125,42.284c.206.04.544.04.75,0c.206-.039.037-.072-.375-.072-.413,0-.581.033-.375.072m123.417.008c2.543.025,6.706.025,9.25,0c2.543-.026.462-.047-4.625-.047-5.088,0-7.169.021-4.625.047m126.176-.001c1.174.029,3.049.029,4.167,0c1.117-.029.157-.052-2.135-.052s-3.206.024-2.032.052m-312.76.167c1.765.027,4.652.027,6.417,0s.321-.049-3.208-.049c-3.53,0-4.973.022-3.209.049m30,0c2.498.026,6.586.026,9.084,0s.454-.047-4.542-.047-7.04.021-4.542.047m69.25-.01c.161.042.423.042.584,0c.16-.042.029-.076-.292-.076s-.452.034-.292.076m82.198.103c-.046.12-.062,1.151-.036,2.292l.048,2.074.083-2.292c.081-2.259.07-2.504-.095-2.074M62.833,44.784c-.046,1.21-.024,2.142.047,2.07.072-.072.109-1.063.083-2.201l-.048-2.07-.082,2.201m305.875-1.669c.161.042.423.042.584,0c.16-.042.029-.076-.292-.076s-.452.034-.292.076m-9.541,1.302c.311.32.603.583.648.583.046,0-.171-.263-.482-.583-.311-.321-.603-.584-.648-.584-.046,0,.171.263.482.584M19.47,47.125c1.954.027,5.104.026,7,0c1.895-.027.297-.049-3.553-.049s-5.402.022-3.447.049m28.988,0c2.59.026,6.827.026,9.417,0s.471-.047-4.708-.047c-5.18,0-7.298.021-4.709.047m86.576-.002c.615.032,1.665.033,2.334.001.668-.032.165-.058-1.118-.058-1.283-.001-1.83.025-1.216.057m19.683.001c.806.031,2.081.031,2.833,0s.092-.056-1.467-.056c-1.558,0-2.173.026-1.366.056m19.825,0c.618.032,1.631.032,2.25,0c.618-.032.112-.059-1.125-.059-1.238,0-1.744.027-1.125.059m16.341,0c.807.031,2.082.031,2.834,0c.751-.031.091-.056-1.467-.056s-2.173.026-1.367.056m14.587.001c2.596.026,6.796.026,9.334,0c2.537-.026.413-.047-4.721-.047-5.133,0-7.209.021-4.613.047m64.079-.001c.715.031,1.84.031,2.5,0c.661-.032.076-.058-1.299-.057-1.375,0-1.915.026-1.201.057m33.319-.001c.614.032,1.664.033,2.333.001s.166-.058-1.118-.058c-1.283-.001-1.83.025-1.215.057m16.515.001c.807.031,2.082.031,2.834,0c.751-.031.091-.056-1.467-.056s-2.173.026-1.367.056m12.742.001c1.49.027,3.927.027,5.417,0c1.489-.028.271-.051-2.709-.051-2.979,0-4.198.023-2.708.051M316.388,59.583c.001.642.031.884.067.538s.035-.871-.001-1.166c-.037-.296-.067-.013-.066.628M321.067,61c0,1.421.026,2.002.057,1.292.031-.711.031-1.873,0-2.584-.031-.71-.057-.129-.057,1.292m13.63-.052c-.016,1.393.026,2.567.095,2.61.068.043.105-.721.081-1.698-.078-3.16-.144-3.502-.176-.912m3.869-.198c0,1.283.026,1.786.058,1.118.032-.669.031-1.719-.001-2.334-.032-.614-.058-.067-.057,1.216m-26.524-1.968c.16.041.423.041.583,0c.16-.042.029-.077-.292-.077s-.452.035-.291.077m2.083.002c.206.04.544.04.75,0c.206-.039.037-.072-.375-.072-.413,0-.581.033-.375.072m8,.003c.298.037.785.037,1.083,0s.054-.067-.541-.067c-.596,0-.84.03-.542.067M333.4,61.083c0,1.375.026,1.916.057,1.201.032-.715.031-1.84,0-2.5-.032-.66-.057-.076-.057,1.299m4.831-.416c0,1.146.027,1.614.059,1.041.033-.573.033-1.51,0-2.083-.032-.573-.059-.104-.059,1.042m1.669.416c0,1.375.026,1.916.057,1.201.032-.715.031-1.84,0-2.5-.032-.66-.057-.076-.057,1.299m1.225-2.296c.298.037.785.037,1.083,0s.054-.067-.541-.067c-.596,0-.84.03-.542.067m3.667-.003c.206.04.543.04.75,0c.206-.039.037-.072-.375-.072-.413,0-.582.033-.375.072m-.571,1.133c.001.641.031.883.067.538.036-.346.036-.871-.001-1.167s-.066-.013-.066.629m-17.086,1.641c-.029,1.151,0,2.04.063,1.976.144-.148.228-3.83.09-3.968-.056-.056-.125.84-.153,1.992m8.104-1.839c-.046.121-.062,1.039-.036,2.042l.049,1.822.082-2.042c.082-2.017.069-2.251-.095-1.822m-4.058.031c-.092.351.015,3.672.123,3.784.062.065.092-.498.068-1.25-.057-1.721-.134-2.75-.191-2.534m-47.969,1.417c0,.412.033.581.072.375.04-.207.04-.544,0-.75-.039-.207-.072-.038-.072.375m34.084-.378c.392.035.992.035,1.333-.001.342-.036.021-.065-.712-.064-.734,0-1.013.03-.621.065m4.832-.002c.3.038.75.037,1-.001s.005-.069-.545-.068-.755.032-.455.069m19,0c.3.038.75.037,1-.001s.005-.069-.545-.068-.755.032-.455.069m-24.709.421c-.123.364-.174,2.449-.057,2.326.106-.111.273-2.535.174-2.534-.025,0-.078.094-.117.208m28.373-.09c.206.039.543.039.75,0c.206-.04.037-.073-.375-.073-.413,0-.582.033-.375.073M344.22,62.5c0,.596.03.84.067.542s.037-.786,0-1.084-.067-.054-.067.542" fill="#949ca4" fill-rule="evenodd"/></g></svg>