<?xml version="1.0" encoding="utf-8"?>
<!-- Generator: Adobe Illustrator 13.0.0, SVG Export Plug-In . SVG Version: 6.00 Build 14948)  -->
<!DOCTYPE svg PUBLIC "-//W3C//DTD SVG 1.1//EN" "http://www.w3.org/Graphics/SVG/1.1/DTD/svg11.dtd">
<svg version="1.1" id="Layer_1" xmlns="http://www.w3.org/2000/svg" xmlns:xlink="http://www.w3.org/1999/xlink" x="0px" y="0px"
	 width="224px" height="40px" viewBox="0 0 224 40" enable-background="new 0 0 224 40" xml:space="preserve">
<rect fill="#304865" width="224" height="40"/>
<g>
	<g>
		<path fill="#F08519" d="M3.57,35.692V4.256h217.457v31.103v0.334H3.57L3.57,35.692z M220.729,35.358v-0.335V35.358L220.729,35.358
			z M4.167,35.023h216.263l-0.001-30.1H4.167V35.023L4.167,35.023z"/>
	</g>
	<g>
		<path fill="#FFFFFF" d="M111.465,27.9h-4.319l-2.886-5.318h-4.337V27.9h-3.871V11.627h9.015c3.262,0,5.412,2.106,5.412,5.338
			v0.021c0,2.187-0.896,3.872-2.401,4.796L111.465,27.9z M99.923,15.659v3.372h4.66c1.219,0,1.953-0.481,1.953-1.686v-0.02
			c0-1.225-0.717-1.667-1.953-1.667H99.923z"/>
		<path fill="#FFFFFF" d="M112.415,27.9V11.627h12.831v4.053h-8.96v2.108h8.387v3.731h-8.387v2.328h8.979V27.9H112.415z"/>
		<path fill="#FFFFFF" d="M146.95,11.627h4.229L146.896,27.9h-5.179l-2.939-11.678L135.946,27.9h-5.161l-4.408-16.273h4.229
			l2.921,11.759l2.851-11.759h4.803l2.957,11.719L146.95,11.627z"/>
		<path fill="#FFFFFF" d="M184.498,27.9h-4.319l-2.886-5.318h-4.336V27.9h-3.872V11.627h9.015c3.262,0,5.412,2.106,5.412,5.338
			v0.021c0,2.187-0.896,3.872-2.4,4.796L184.498,27.9z M172.957,15.659v3.372h4.658c1.219,0,1.954-0.481,1.954-1.686v-0.02
			c0-1.225-0.717-1.667-1.954-1.667H172.957z"/>
		<path fill="#FFFFFF" d="M185.448,27.9V11.627h7.526c6.147,0,8.405,2.607,8.405,7.986v0.04c0,5.579-2.688,8.247-8.405,8.247
			H185.448z M189.319,23.848h3.799c2.957,0,4.319-1.305,4.319-4.194v-0.04c0-2.709-1.308-3.934-4.319-3.934h-3.799V23.848z"/>
		<path fill="#FFFFFF" d="M202.457,26.717l1.738-3.692c1.487,0.763,3.53,1.123,5.663,1.123c2.223,0,3.405-0.18,3.405-0.923v-0.04
			c0-0.661-0.968-0.942-4.068-1.585c-4.229-0.862-5.986-2.207-5.986-5.316v-0.041c0-3.19,2.384-4.916,6.847-4.916
			c2.616,0,5.376,0.723,6.971,1.625l-1.756,3.592c-1.272-0.722-3.656-1.184-5.448-1.184c-1.899,0-2.652,0.221-2.67,0.863v0.04
			c0,0.562,0.573,0.822,3.243,1.384c5.287,1.123,6.864,2.468,6.864,5.559v0.04c0,3.251-2.509,4.937-7.187,4.937
			C206.991,28.182,204.033,27.579,202.457,26.717z"/>
	</g>
	<polygon fill="#F08519" points="158.001,6.484 148.469,27.9 152.608,27.9 152.877,27.279 157.949,15.005 163.311,27.9 167.43,27.9 
			"/>
	<rect x="3.57" y="4.256" fill="#FFFFFF" width="88.417" height="31.438"/>
	<g>
		<path fill="#304865" d="M8.006,27.9V11.627h9.409c3.602,0,4.946,1.646,4.946,4.053V15.7c0,1.425-0.645,2.71-1.756,3.371
			c1.523,0.643,2.419,2.128,2.419,3.894v0.02c0,3.33-1.667,4.916-5.233,4.916H8.006z M11.877,18.148h5.144
			c1.093,0,1.47-0.521,1.47-1.225v-0.02c0-0.702-0.359-1.225-1.47-1.225h-5.144V18.148z M11.877,23.848h5.574
			c1.129,0,1.631-0.521,1.631-1.405v-0.02c0-0.863-0.502-1.305-1.667-1.305h-5.538V23.848z"/>
		<path fill="#304865" d="M24.405,27.9V11.627h3.871v12.221h8.979V27.9H24.405z"/>
		<path fill="#304865" d="M37.739,19.733v-0.02c0-5.036,3.387-8.388,9.033-8.388c5.645,0,9.033,3.352,9.033,8.388v0.02
			c0,5.077-3.388,8.448-9.033,8.448C41.126,28.182,37.739,24.811,37.739,19.733z M51.844,19.773v-0.02
			c0-2.688-1.954-4.375-5.072-4.375c-3.28,0-5.09,1.606-5.09,4.375v0.02c0,2.688,1.954,4.355,5.09,4.355
			S51.844,22.462,51.844,19.773z"/>
		<path fill="#304865" d="M57.131,19.854v-0.041c0-5.096,3.279-8.487,8.71-8.487c2.043,0,4.57,0.582,6.326,1.505l-1.631,3.712
			c-1.29-0.702-3.082-1.164-4.695-1.164c-3.047,0-4.768,1.606-4.768,4.435v0.041c0,2.648,1.882,4.293,4.75,4.293
			c1.577,0,3.387-0.44,4.713-1.163l1.631,3.713c-1.721,0.902-4.247,1.484-6.344,1.484C60.482,28.182,57.131,24.891,57.131,19.854z"
			/>
		<path fill="#304865" d="M89.157,11.627l-7.114,8.127l7.114,8.146h-4.803l-6.918-7.946V27.9h-3.871V11.627h3.871v7.926l6.936-7.926
			H89.157z"/>
	</g>
</g>
</svg>
